G04 Layer_Color=16711935*
%FSLAX43Y43*%
%MOMM*%
G71*
G01*
G75*
%ADD109C,2.503*%
%ADD110C,2.703*%
%ADD111C,1.703*%
%ADD112R,1.703X1.703*%
%ADD113C,1.403*%
%ADD114C,3.003*%
%ADD115C,2.403*%
%ADD116C,2.303*%
%ADD117C,1.803*%
%ADD118C,3.203*%
%ADD119C,2.203*%
%ADD120C,3.803*%
%ADD121C,0.903*%
D109*
X30200Y72200D02*
D03*
Y77280D02*
D03*
X72500Y74400D02*
D03*
X67420D02*
D03*
X83600D02*
D03*
X78520D02*
D03*
X94700D02*
D03*
X89620D02*
D03*
X105800D02*
D03*
X100720D02*
D03*
D110*
X33500Y109500D02*
D03*
X98740Y84900D02*
D03*
Y92500D02*
D03*
X83500Y84900D02*
D03*
Y92500D02*
D03*
X78420Y84900D02*
D03*
Y92500D02*
D03*
X73340Y84900D02*
D03*
Y92500D02*
D03*
D111*
X101420Y178740D02*
D03*
Y176200D02*
D03*
X98880Y178740D02*
D03*
Y176200D02*
D03*
X96340Y178740D02*
D03*
Y176200D02*
D03*
X93800Y178740D02*
D03*
X39300Y83500D02*
D03*
Y71500D02*
D03*
X66970Y184200D02*
D03*
X69510D02*
D03*
X72050D02*
D03*
X74590D02*
D03*
X77130D02*
D03*
X79670D02*
D03*
X82210D02*
D03*
X84750D02*
D03*
X87290D02*
D03*
X89830D02*
D03*
X94910D02*
D03*
X97450D02*
D03*
X99990D02*
D03*
X102530D02*
D03*
X105070D02*
D03*
X107610D02*
D03*
X110150D02*
D03*
X112690D02*
D03*
X115230D02*
D03*
X92370D02*
D03*
D112*
X93800Y176200D02*
D03*
D113*
X77700Y169940D02*
D03*
Y165060D02*
D03*
D114*
X130000Y96000D02*
D03*
Y89200D02*
D03*
X62900Y134000D02*
D03*
X56100D02*
D03*
X123300Y104900D02*
D03*
X116500D02*
D03*
D115*
X51500Y71500D02*
D03*
Y83500D02*
D03*
D116*
X37300Y77500D02*
D03*
D117*
X110750Y77200D02*
D03*
X138250D02*
D03*
X37000Y89500D02*
D03*
X32000D02*
D03*
D118*
X126100Y184200D02*
D03*
X56100D02*
D03*
Y233900D02*
D03*
X126100D02*
D03*
D119*
X48100Y171800D02*
D03*
X43100D02*
D03*
X38100D02*
D03*
X68700D02*
D03*
X63700D02*
D03*
X58700D02*
D03*
D120*
X137500Y158100D02*
D03*
Y162800D02*
D03*
Y167500D02*
D03*
D121*
X130683Y118999D02*
D03*
X73406Y195732D02*
D03*
X88544Y167183D02*
D03*
X88189Y143434D02*
D03*
X99441Y139751D02*
D03*
X99466Y168834D02*
D03*
X148700Y95100D02*
D03*
X118900Y161496D02*
D03*
X70485Y159639D02*
D03*
X127889Y109093D02*
D03*
X66243Y93624D02*
D03*
X52730Y76505D02*
D03*
X52705Y74930D02*
D03*
X102000Y160000D02*
D03*
X108600Y181200D02*
D03*
X76600Y181100D02*
D03*
X108900Y177300D02*
D03*
X104800Y157900D02*
D03*
X119800Y156300D02*
D03*
X49800Y161700D02*
D03*
Y163300D02*
D03*
X67200Y164100D02*
D03*
X70500Y164000D02*
D03*
X37800Y97200D02*
D03*
X71300Y115400D02*
D03*
Y126000D02*
D03*
X116200Y117500D02*
D03*
X116300Y128600D02*
D03*
X146700Y138000D02*
D03*
Y139900D02*
D03*
X90300Y143400D02*
D03*
X68100Y144400D02*
D03*
X66300D02*
D03*
X32800Y97200D02*
D03*
X107700Y149000D02*
D03*
X101500D02*
D03*
X87500Y170100D02*
D03*
X93300Y132200D02*
D03*
X120800Y137900D02*
D03*
X83300Y171500D02*
D03*
X145000Y135100D02*
D03*
X33600Y140500D02*
D03*
X36900Y140600D02*
D03*
X42100D02*
D03*
X43600D02*
D03*
X58600Y139600D02*
D03*
X66200D02*
D03*
X76400Y133900D02*
D03*
Y132300D02*
D03*
X152200Y90300D02*
D03*
X150700Y91800D02*
D03*
X41400Y153100D02*
D03*
X51000Y159800D02*
D03*
X80100Y175800D02*
D03*
X79500Y165600D02*
D03*
X87100Y177500D02*
D03*
X92000Y163500D02*
D03*
X98200Y152700D02*
D03*
X101900Y162800D02*
D03*
X128000Y139900D02*
D03*
X119200Y108600D02*
D03*
X135077Y111201D02*
D03*
X142900Y92400D02*
D03*
X145300D02*
D03*
X74000Y114400D02*
D03*
X73000Y115400D02*
D03*
X61300Y114300D02*
D03*
X37300Y113800D02*
D03*
X42100Y121600D02*
D03*
X28900Y108500D02*
D03*
X56900Y85600D02*
D03*
X144600Y98200D02*
D03*
X144800Y101200D02*
D03*
X144600Y99700D02*
D03*
X130700Y194700D02*
D03*
X119700Y193700D02*
D03*
X88800Y100900D02*
D03*
X83800Y127500D02*
D03*
Y125400D02*
D03*
X120500Y127700D02*
D03*
Y119100D02*
D03*
X125800Y139100D02*
D03*
X88900Y169600D02*
D03*
X90900Y170900D02*
D03*
X110000Y168300D02*
D03*
X111200Y169300D02*
D03*
X110700Y173200D02*
D03*
X107500Y171000D02*
D03*
X135000Y92400D02*
D03*
X142392Y133858D02*
D03*
X96672Y99949D02*
D03*
X100070Y101168D02*
D03*
X109042Y97765D02*
D03*
X121006Y102794D02*
D03*
X135052Y113690D02*
D03*
X135065Y112471D02*
D03*
X144805Y111836D02*
D03*
X143963Y113288D02*
D03*
X128270Y155677D02*
D03*
X112928Y154737D02*
D03*
X135001Y144780D02*
D03*
X137363Y148539D02*
D03*
X153620Y126848D02*
D03*
M02*
