M48
;Layer_Color=9474304
;FILE_FORMAT=4:3
METRIC,LZ
;TYPE=PLATED
T1F00S00C0.300
T2F00S00C0.500
T3F00S00C0.700
T4F00S00C0.800
T5F00S00C0.900
T6F00S00C1.000
T7F00S00C1.100
T8F00S00C1.200
T9F00S00C1.300
T10F00S00C1.400
T11F00S00C1.600
T12F00S00C1.800
T13F00S00C2.000
T14F00S00C2.400
%
T01
X0052705Y007493
X005273Y0076505
X00378Y00972
X00328
X00289Y01085
X00373Y01138
X00613Y01143
X00713Y01154
X0073
X0074Y01144
X0066243Y0093624
X00569Y00856
X00888Y01009
X0096672Y0099949
X010007Y0101168
X0109042Y0097765
X01162Y01175
X01192Y01086
X0121006Y0102794
X0127889Y0109093
X0135077Y0111201
X0135065Y0112471
X0135052Y011369
X0143963Y0113288
X0144805Y0111836
X01448Y01012
X01446Y00997
Y00982
X01453Y00924
X01429
X0135
X01507Y00918
X01522Y00903
X01487Y00951
X0130683Y0118999
X01205Y01191
Y01277
X01208Y01379
X01258Y01391
X0128Y01399
X0135001Y014478
X0137363Y0148539
X012827Y0155677
X01198Y01563
X01467Y01399
Y0138
X0145Y01351
X0142392Y0133858
X015362Y0126848
X01163Y01286
X00933Y01322
X0099441Y0139751
X01015Y0149
X01077
X0112928Y0154737
X01048Y01579
X00982Y01527
X00903Y01434
X0088189Y0143434
X00838Y01275
Y01254
X00713Y0126
X00764Y01323
Y01339
X00662Y01396
X00663Y01444
X00681
X00586Y01396
X00436Y01406
X00421
X00414Y01531
X00421Y01216
X00369Y01406
X00336Y01405
X0051Y01598
X00498Y01617
Y01633
X00672Y01641
X00705Y0164
X0070485Y0159639
X00766Y01811
X0073406Y0195732
X00801Y01758
X00833Y01715
X00875Y01701
X00889Y01696
X0088544Y0167183
X00909Y01709
X0092Y01635
X01019Y01628
X0102Y016
X0099466Y0168834
X01075Y0171
X011Y01683
X01112Y01693
X01107Y01732
X01089Y01773
X01086Y01812
X00871Y01775
X00795Y01656
X01189Y0161496
X01197Y01937
X01307Y01947
T02
X00777Y016506
Y016994
T03
X00393Y00715
Y00835
T04
X0032Y00895
X0037
T05
X013825Y00772
X011075
X010142Y01762
Y017874
X009888
Y01762
X009634
Y017874
X00938
Y01762
T06
X006697Y01842
X006951
X007205
X007459
X007713
X007967
X008221
X008475
X008729
X008983
X009237
X009491
X009745
X009999
X010253
X010507
X010761
X011015
X011269
X011523
T07
X00373Y00775
T08
X00515Y00715
Y00835
T09
X00381Y01718
X00431
X00481
X00587
X00637
X00687
T10
X007334Y00849
X007842
Y00925
X007334
X00835
Y00849
X009874
Y00925
T11
X00836Y00744
X008962
X00947
X010072
X01058
X007852
X00725
X006742
X00302Y00722
Y007728
T12
X01165Y01049
X01233
X013Y0096
Y00892
X00629Y0134
X00561
T13
X00335Y01095
X00561Y01842
X01261
Y02339
X00561
T14
X01375Y01581
Y01628
Y01675
M30
