G04 Layer_Physical_Order=2*
G04 Layer_Color=16711680*
%FSLAX43Y43*%
%MOMM*%
G71*
G01*
G75*
%ADD40C,0.200*%
%ADD41C,0.250*%
%ADD43C,0.300*%
%ADD44C,0.400*%
%ADD49C,0.500*%
%ADD66C,2.300*%
%ADD67C,2.500*%
%ADD68C,1.500*%
%ADD69R,1.500X1.500*%
%ADD70C,1.200*%
%ADD71C,2.800*%
%ADD72C,2.200*%
%ADD73C,2.100*%
%ADD74C,1.600*%
%ADD75C,3.000*%
%ADD76C,2.000*%
%ADD77C,3.600*%
%ADD78C,0.700*%
G36*
X110784Y169667D02*
X110682Y169515D01*
X110639Y169300D01*
X110644Y169276D01*
X110190Y168823D01*
X110000Y168861D01*
X109785Y168818D01*
X109603Y168697D01*
X109482Y168515D01*
X109451Y168361D01*
X109316Y168316D01*
X107956Y169677D01*
X108004Y169794D01*
X110738D01*
X110784Y169667D01*
D02*
G37*
G36*
X156769Y153238D02*
X156820Y153187D01*
X156693Y153060D01*
X139142D01*
X121886Y170316D01*
X121787Y170383D01*
X121670Y170406D01*
X121670Y170406D01*
X107927D01*
X107888Y170533D01*
X107935Y170565D01*
X108069Y170764D01*
X108091Y170873D01*
X106909D01*
X106931Y170764D01*
X107065Y170565D01*
X107112Y170533D01*
X107073Y170406D01*
X91362D01*
X91316Y170533D01*
X91418Y170685D01*
X91461Y170900D01*
X91418Y171115D01*
X91297Y171297D01*
X91206Y171357D01*
Y173173D01*
X93283Y175250D01*
X94750D01*
Y177150D01*
X92850D01*
Y175683D01*
X90684Y173516D01*
X90617Y173417D01*
X90594Y173300D01*
X90594Y173300D01*
Y171357D01*
X90503Y171297D01*
X90382Y171115D01*
X90339Y170900D01*
X90382Y170685D01*
X90481Y170538D01*
X90435Y170425D01*
X90321Y170412D01*
X89712Y171020D01*
X89613Y171087D01*
X89496Y171110D01*
X89496Y171110D01*
X84123D01*
X83840Y171393D01*
X83861Y171500D01*
X83818Y171715D01*
X83697Y171897D01*
X83515Y172018D01*
X83300Y172061D01*
X83085Y172018D01*
X82903Y171897D01*
X82782Y171715D01*
X82739Y171500D01*
X82782Y171285D01*
X82903Y171103D01*
X83085Y170982D01*
X83300Y170939D01*
X83407Y170960D01*
X83780Y170588D01*
X83780Y170588D01*
X83879Y170521D01*
X83996Y170498D01*
X83996Y170498D01*
X86952D01*
X87020Y170371D01*
X86982Y170315D01*
X86939Y170100D01*
X86982Y169885D01*
X87103Y169703D01*
X87285Y169582D01*
X87500Y169539D01*
X87527Y169545D01*
X92994Y164078D01*
Y132657D01*
X92903Y132597D01*
X92782Y132415D01*
X92739Y132200D01*
X92782Y131985D01*
X92903Y131803D01*
X93085Y131682D01*
X93300Y131639D01*
X93515Y131682D01*
X93697Y131803D01*
X93818Y131985D01*
X93861Y132200D01*
X93818Y132415D01*
X93697Y132597D01*
X93606Y132657D01*
Y164204D01*
X93606Y164204D01*
X93583Y164321D01*
X93516Y164421D01*
X93516Y164421D01*
X89006Y168931D01*
X89048Y169069D01*
X89115Y169082D01*
X89297Y169203D01*
X89357Y169294D01*
X98960D01*
X99028Y169167D01*
X98948Y169048D01*
X98906Y168834D01*
X98948Y168619D01*
X99070Y168437D01*
X99161Y168377D01*
Y140225D01*
X99044Y140147D01*
X98923Y139965D01*
X98880Y139751D01*
X98923Y139536D01*
X99044Y139354D01*
X99226Y139233D01*
X99441Y139190D01*
X99656Y139233D01*
X99838Y139354D01*
X99959Y139536D01*
X100002Y139751D01*
X99959Y139965D01*
X99838Y140147D01*
X99772Y140191D01*
Y168377D01*
X99863Y168437D01*
X99984Y168619D01*
X100027Y168834D01*
X99984Y169048D01*
X99905Y169167D01*
X99973Y169294D01*
X107473D01*
X111671Y165097D01*
X111770Y165030D01*
X111887Y165007D01*
X111887Y165007D01*
X112335D01*
X120494Y156848D01*
Y138357D01*
X120403Y138297D01*
X120282Y138115D01*
X120239Y137900D01*
X120282Y137685D01*
X120403Y137503D01*
X120585Y137382D01*
X120800Y137339D01*
X121015Y137382D01*
X121197Y137503D01*
X121318Y137685D01*
X121361Y137900D01*
X121318Y138115D01*
X121197Y138297D01*
X121106Y138357D01*
Y156974D01*
X121083Y157091D01*
X121016Y157191D01*
X112678Y165529D01*
X112578Y165596D01*
X112461Y165619D01*
X112461Y165619D01*
X112014D01*
X110016Y167616D01*
X110061Y167751D01*
X110215Y167782D01*
X110397Y167903D01*
X110518Y168085D01*
X110561Y168300D01*
X110556Y168324D01*
X111010Y168777D01*
X111200Y168739D01*
X111415Y168782D01*
X111597Y168903D01*
X111718Y169085D01*
X111761Y169300D01*
X111718Y169515D01*
X111616Y169667D01*
X111662Y169794D01*
X121543D01*
X138159Y153178D01*
X138111Y153060D01*
X129692D01*
Y133342D01*
X129575Y133294D01*
X126131Y136737D01*
Y138660D01*
X126197Y138703D01*
X126318Y138885D01*
X126361Y139100D01*
X126318Y139315D01*
X126197Y139497D01*
X126015Y139618D01*
X125800Y139661D01*
X125585Y139618D01*
X125403Y139497D01*
X125282Y139315D01*
X125239Y139100D01*
X125282Y138885D01*
X125403Y138703D01*
X125469Y138660D01*
Y136600D01*
X125494Y136473D01*
X125566Y136366D01*
X129692Y132239D01*
Y123063D01*
X129529Y122900D01*
X120908D01*
Y127320D01*
X121018Y127485D01*
X121061Y127700D01*
X121018Y127915D01*
X120897Y128097D01*
X120715Y128218D01*
X120500Y128261D01*
X120285Y128218D01*
X120103Y128097D01*
X119982Y127915D01*
X119939Y127700D01*
X119982Y127485D01*
X120092Y127320D01*
Y122900D01*
X116531D01*
Y128093D01*
X116697Y128203D01*
X116818Y128385D01*
X116861Y128600D01*
X116818Y128815D01*
X116697Y128997D01*
X116515Y129118D01*
X116300Y129161D01*
X116085Y129118D01*
X115903Y128997D01*
X115782Y128815D01*
X115739Y128600D01*
X115782Y128385D01*
X115869Y128256D01*
Y122900D01*
X108006D01*
Y148543D01*
X108097Y148603D01*
X108218Y148785D01*
X108261Y149000D01*
X108218Y149215D01*
X108097Y149397D01*
X107915Y149518D01*
X107700Y149561D01*
X107485Y149518D01*
X107303Y149397D01*
X107182Y149215D01*
X107139Y149000D01*
X107182Y148785D01*
X107303Y148603D01*
X107394Y148543D01*
Y122900D01*
X101806D01*
Y148543D01*
X101897Y148603D01*
X102018Y148785D01*
X102061Y149000D01*
X102018Y149215D01*
X101897Y149397D01*
X101715Y149518D01*
X101500Y149561D01*
X101285Y149518D01*
X101103Y149397D01*
X100982Y149215D01*
X100939Y149000D01*
X100982Y148785D01*
X101103Y148603D01*
X101194Y148543D01*
Y122900D01*
X71657D01*
Y125577D01*
X71697Y125603D01*
X71818Y125785D01*
X71861Y126000D01*
X71818Y126215D01*
X71697Y126397D01*
X71515Y126518D01*
X71300Y126561D01*
X71085Y126518D01*
X70903Y126397D01*
X70782Y126215D01*
X70739Y126000D01*
X70782Y125785D01*
X70903Y125603D01*
X70943Y125577D01*
Y122900D01*
X49600D01*
Y94948D01*
X49590Y94944D01*
X25537D01*
X25375Y236308D01*
X25464Y236398D01*
X156769D01*
Y153238D01*
D02*
G37*
G36*
X135509Y119101D02*
X135306Y118897D01*
Y114385D01*
X135179Y114281D01*
Y113690D01*
X135052D01*
Y113563D01*
X134461D01*
X134483Y113455D01*
X134616Y113255D01*
X134775Y113149D01*
X134782Y113017D01*
X134778Y113006D01*
X134630Y112907D01*
X134496Y112707D01*
X134474Y112598D01*
X135065D01*
Y112344D01*
X134474D01*
X134496Y112236D01*
X134630Y112036D01*
X134829Y111902D01*
X134842Y111900D01*
Y111770D01*
X134842Y111770D01*
X134642Y111637D01*
X134508Y111437D01*
X134487Y111328D01*
X135077D01*
Y111201D01*
X135204D01*
Y110611D01*
X135208Y110611D01*
X135306Y110531D01*
Y110338D01*
X127787D01*
X123854Y106404D01*
X123614Y106477D01*
X123300Y106508D01*
X122986Y106477D01*
X122685Y106385D01*
X122407Y106237D01*
X122163Y106037D01*
X121963Y105793D01*
X121815Y105515D01*
X121723Y105214D01*
X121692Y104900D01*
X121723Y104586D01*
X121796Y104346D01*
X120841Y103391D01*
X119457Y104775D01*
Y105549D01*
X119457Y105549D01*
X119434Y105666D01*
X119368Y105765D01*
X119368Y105765D01*
X108006Y117127D01*
Y119304D01*
X115869D01*
Y117940D01*
X115803Y117897D01*
X115682Y117715D01*
X115639Y117500D01*
X115682Y117285D01*
X115803Y117103D01*
X115985Y116982D01*
X116200Y116939D01*
X116415Y116982D01*
X116597Y117103D01*
X116718Y117285D01*
X116761Y117500D01*
X116718Y117715D01*
X116597Y117897D01*
X116531Y117940D01*
Y119304D01*
X119880D01*
X119960Y119206D01*
X119939Y119100D01*
X119982Y118885D01*
X120103Y118703D01*
X120285Y118582D01*
X120500Y118539D01*
X120715Y118582D01*
X120897Y118703D01*
X121018Y118885D01*
X121061Y119100D01*
X121040Y119206D01*
X121120Y119304D01*
X130084D01*
X130158Y119177D01*
X130122Y118999D01*
X130165Y118784D01*
X130286Y118602D01*
X130468Y118481D01*
X130683Y118438D01*
X130898Y118481D01*
X131080Y118602D01*
X131201Y118784D01*
X131244Y118999D01*
X131208Y119177D01*
X131282Y119304D01*
X135306D01*
X135509Y119101D01*
D02*
G37*
G36*
X107394Y117000D02*
X107394Y117000D01*
X107417Y116883D01*
X107484Y116784D01*
X118846Y105422D01*
Y104648D01*
X118846Y104648D01*
X118869Y104531D01*
X118935Y104432D01*
X120408Y102959D01*
X120117Y102667D01*
X70002D01*
Y98146D01*
Y94488D01*
X68504Y92989D01*
X66609D01*
X66570Y93116D01*
X66679Y93189D01*
X66812Y93389D01*
X66834Y93497D01*
X65653D01*
X65674Y93389D01*
X65808Y93189D01*
X65916Y93116D01*
X65878Y92989D01*
X59182D01*
Y69621D01*
X59207Y69596D01*
X59106Y69494D01*
X25655D01*
X25635Y69592D01*
X25580Y69675D01*
X25555Y69700D01*
X25472Y69755D01*
X25400Y69770D01*
Y90424D01*
X25421Y90475D01*
X31436Y90480D01*
X31443Y90469D01*
X31469Y90353D01*
X31287Y90213D01*
X31126Y90004D01*
X31026Y89761D01*
X30991Y89500D01*
X31026Y89239D01*
X31126Y88996D01*
X31287Y88787D01*
X31496Y88627D01*
X31739Y88526D01*
X32000Y88491D01*
X32261Y88526D01*
X32504Y88627D01*
X32713Y88787D01*
X32874Y88996D01*
X32974Y89239D01*
X33009Y89500D01*
X32974Y89761D01*
X32874Y90004D01*
X32713Y90213D01*
X32530Y90354D01*
X32552Y90462D01*
X32563Y90481D01*
X36441Y90484D01*
X36463Y90440D01*
X36475Y90357D01*
X36287Y90213D01*
X36126Y90004D01*
X36026Y89761D01*
X35991Y89500D01*
X36026Y89239D01*
X36126Y88996D01*
X36287Y88787D01*
X36496Y88627D01*
X36739Y88526D01*
X37000Y88491D01*
X37261Y88526D01*
X37504Y88627D01*
X37713Y88787D01*
X37874Y88996D01*
X37974Y89239D01*
X38009Y89500D01*
X37974Y89761D01*
X37874Y90004D01*
X37713Y90213D01*
X37524Y90358D01*
X37534Y90434D01*
X37558Y90485D01*
X54762Y90500D01*
X54864Y90602D01*
Y119304D01*
X70943D01*
Y115823D01*
X70903Y115797D01*
X70782Y115615D01*
X70739Y115400D01*
X70782Y115185D01*
X70903Y115003D01*
X71085Y114882D01*
X71300Y114839D01*
X71515Y114882D01*
X71697Y115003D01*
X71818Y115185D01*
X71861Y115400D01*
X71818Y115615D01*
X71697Y115797D01*
X71657Y115823D01*
Y119304D01*
X101194D01*
Y115200D01*
X101194Y115200D01*
X101217Y115083D01*
X101284Y114984D01*
X111384Y104884D01*
X111384Y104884D01*
X111483Y104817D01*
X111600Y104794D01*
X111600Y104794D01*
X114903D01*
X114923Y104586D01*
X115015Y104285D01*
X115163Y104007D01*
X115363Y103763D01*
X115607Y103563D01*
X115885Y103415D01*
X116186Y103323D01*
X116500Y103292D01*
X116814Y103323D01*
X117115Y103415D01*
X117393Y103563D01*
X117637Y103763D01*
X117837Y104007D01*
X117985Y104285D01*
X118077Y104586D01*
X118108Y104900D01*
X118077Y105214D01*
X117985Y105515D01*
X117837Y105793D01*
X117637Y106037D01*
X117393Y106237D01*
X117115Y106385D01*
X116814Y106477D01*
X116500Y106508D01*
X116186Y106477D01*
X115885Y106385D01*
X115607Y106237D01*
X115363Y106037D01*
X115163Y105793D01*
X115015Y105515D01*
X114981Y105406D01*
X111727D01*
X101806Y115327D01*
Y119304D01*
X107394D01*
Y117000D01*
D02*
G37*
%LPC*%
G36*
X126100Y235608D02*
X125767Y235575D01*
X125446Y235478D01*
X125151Y235320D01*
X124892Y235108D01*
X124680Y234849D01*
X124522Y234554D01*
X124425Y234233D01*
X124392Y233900D01*
X124425Y233567D01*
X124522Y233246D01*
X124680Y232951D01*
X124892Y232692D01*
X125151Y232480D01*
X125446Y232322D01*
X125767Y232225D01*
X126100Y232192D01*
X126433Y232225D01*
X126754Y232322D01*
X127049Y232480D01*
X127308Y232692D01*
X127520Y232951D01*
X127678Y233246D01*
X127775Y233567D01*
X127808Y233900D01*
X127775Y234233D01*
X127678Y234554D01*
X127520Y234849D01*
X127308Y235108D01*
X127049Y235320D01*
X126754Y235478D01*
X126433Y235575D01*
X126100Y235608D01*
D02*
G37*
G36*
X56100D02*
X55767Y235575D01*
X55446Y235478D01*
X55151Y235320D01*
X54892Y235108D01*
X54680Y234849D01*
X54522Y234554D01*
X54425Y234233D01*
X54392Y233900D01*
X54425Y233567D01*
X54522Y233246D01*
X54680Y232951D01*
X54892Y232692D01*
X55151Y232480D01*
X55446Y232322D01*
X55767Y232225D01*
X56100Y232192D01*
X56433Y232225D01*
X56754Y232322D01*
X57049Y232480D01*
X57308Y232692D01*
X57520Y232951D01*
X57678Y233246D01*
X57775Y233567D01*
X57808Y233900D01*
X57775Y234233D01*
X57678Y234554D01*
X57520Y234849D01*
X57308Y235108D01*
X57049Y235320D01*
X56754Y235478D01*
X56433Y235575D01*
X56100Y235608D01*
D02*
G37*
G36*
X130827Y195291D02*
Y194827D01*
X131291D01*
X131269Y194936D01*
X131135Y195135D01*
X130936Y195269D01*
X130827Y195291D01*
D02*
G37*
G36*
X130573D02*
X130464Y195269D01*
X130265Y195135D01*
X130131Y194936D01*
X130109Y194827D01*
X130573D01*
Y195291D01*
D02*
G37*
G36*
X131291Y194573D02*
X130827D01*
Y194109D01*
X130936Y194131D01*
X131135Y194265D01*
X131269Y194464D01*
X131291Y194573D01*
D02*
G37*
G36*
X130573D02*
X130109D01*
X130131Y194464D01*
X130265Y194265D01*
X130464Y194131D01*
X130573Y194109D01*
Y194573D01*
D02*
G37*
G36*
X119827Y194291D02*
Y193827D01*
X120291D01*
X120269Y193936D01*
X120135Y194135D01*
X119936Y194269D01*
X119827Y194291D01*
D02*
G37*
G36*
X119573D02*
X119464Y194269D01*
X119265Y194135D01*
X119131Y193936D01*
X119109Y193827D01*
X119573D01*
Y194291D01*
D02*
G37*
G36*
X120291Y193573D02*
X119827D01*
Y193109D01*
X119936Y193131D01*
X120135Y193265D01*
X120269Y193464D01*
X120291Y193573D01*
D02*
G37*
G36*
X119573D02*
X119109D01*
X119131Y193464D01*
X119265Y193265D01*
X119464Y193131D01*
X119573Y193109D01*
Y193573D01*
D02*
G37*
G36*
X73406Y196293D02*
X73191Y196250D01*
X73009Y196129D01*
X72888Y195947D01*
X72845Y195732D01*
X72888Y195518D01*
X73009Y195336D01*
X73100Y195275D01*
Y184467D01*
X72976Y184448D01*
X72880Y184679D01*
X72728Y184878D01*
X72529Y185030D01*
X72298Y185126D01*
X72050Y185158D01*
X71802Y185126D01*
X71571Y185030D01*
X71372Y184878D01*
X71220Y184679D01*
X71124Y184448D01*
X71092Y184200D01*
X71124Y183952D01*
X71220Y183721D01*
X71372Y183522D01*
X71571Y183370D01*
X71802Y183274D01*
X72050Y183242D01*
X72298Y183274D01*
X72529Y183370D01*
X72728Y183522D01*
X72880Y183721D01*
X72976Y183952D01*
X73100Y183933D01*
Y178410D01*
X73100Y178410D01*
X73123Y178293D01*
X73190Y178193D01*
X84417Y166967D01*
X84516Y166900D01*
X84633Y166877D01*
X84633Y166877D01*
X88087D01*
X88148Y166786D01*
X88330Y166665D01*
X88544Y166622D01*
X88759Y166665D01*
X88941Y166786D01*
X89062Y166968D01*
X89105Y167183D01*
X89062Y167397D01*
X88941Y167579D01*
X88759Y167701D01*
X88544Y167744D01*
X88330Y167701D01*
X88148Y167579D01*
X88087Y167489D01*
X84759D01*
X73712Y178536D01*
Y183575D01*
X73839Y183618D01*
X73912Y183522D01*
X74111Y183370D01*
X74342Y183274D01*
X74590Y183242D01*
X74838Y183274D01*
X75069Y183370D01*
X75268Y183522D01*
X75420Y183721D01*
X75516Y183952D01*
X75548Y184200D01*
X75516Y184448D01*
X75420Y184679D01*
X75268Y184878D01*
X75069Y185030D01*
X74838Y185126D01*
X74590Y185158D01*
X74342Y185126D01*
X74111Y185030D01*
X73912Y184878D01*
X73839Y184782D01*
X73712Y184825D01*
Y195275D01*
X73803Y195336D01*
X73924Y195518D01*
X73967Y195732D01*
X73924Y195947D01*
X73803Y196129D01*
X73621Y196250D01*
X73406Y196293D01*
D02*
G37*
G36*
X102657Y185196D02*
Y184327D01*
X103526D01*
X103508Y184462D01*
X103407Y184706D01*
X103246Y184916D01*
X103036Y185077D01*
X102792Y185178D01*
X102657Y185196D01*
D02*
G37*
G36*
X69637D02*
Y184327D01*
X70506D01*
X70488Y184462D01*
X70387Y184706D01*
X70226Y184916D01*
X70016Y185077D01*
X69772Y185178D01*
X69637Y185196D01*
D02*
G37*
G36*
X102403D02*
X102268Y185178D01*
X102024Y185077D01*
X101814Y184916D01*
X101653Y184706D01*
X101552Y184462D01*
X101534Y184327D01*
X102403D01*
Y185196D01*
D02*
G37*
G36*
X69383D02*
X69248Y185178D01*
X69004Y185077D01*
X68794Y184916D01*
X68633Y184706D01*
X68532Y184462D01*
X68514Y184327D01*
X69383D01*
Y185196D01*
D02*
G37*
G36*
X115230Y185158D02*
X114982Y185126D01*
X114751Y185030D01*
X114552Y184878D01*
X114400Y184679D01*
X114304Y184448D01*
X114272Y184200D01*
X114304Y183952D01*
X114400Y183721D01*
X114552Y183522D01*
X114751Y183370D01*
X114982Y183274D01*
X115230Y183242D01*
X115478Y183274D01*
X115709Y183370D01*
X115908Y183522D01*
X116060Y183721D01*
X116156Y183952D01*
X116188Y184200D01*
X116156Y184448D01*
X116060Y184679D01*
X115908Y184878D01*
X115709Y185030D01*
X115478Y185126D01*
X115230Y185158D01*
D02*
G37*
G36*
X112690D02*
X112442Y185126D01*
X112211Y185030D01*
X112012Y184878D01*
X111860Y184679D01*
X111764Y184448D01*
X111732Y184200D01*
X111764Y183952D01*
X111860Y183721D01*
X112012Y183522D01*
X112211Y183370D01*
X112442Y183274D01*
X112690Y183242D01*
X112938Y183274D01*
X113169Y183370D01*
X113368Y183522D01*
X113520Y183721D01*
X113616Y183952D01*
X113648Y184200D01*
X113616Y184448D01*
X113520Y184679D01*
X113368Y184878D01*
X113169Y185030D01*
X112938Y185126D01*
X112690Y185158D01*
D02*
G37*
G36*
X110150D02*
X109902Y185126D01*
X109671Y185030D01*
X109472Y184878D01*
X109320Y184679D01*
X109224Y184448D01*
X109192Y184200D01*
X109224Y183952D01*
X109320Y183721D01*
X109472Y183522D01*
X109671Y183370D01*
X109902Y183274D01*
X110150Y183242D01*
X110398Y183274D01*
X110629Y183370D01*
X110828Y183522D01*
X110980Y183721D01*
X111076Y183952D01*
X111108Y184200D01*
X111076Y184448D01*
X110980Y184679D01*
X110828Y184878D01*
X110629Y185030D01*
X110398Y185126D01*
X110150Y185158D01*
D02*
G37*
G36*
X107610D02*
X107362Y185126D01*
X107131Y185030D01*
X106932Y184878D01*
X106780Y184679D01*
X106684Y184448D01*
X106652Y184200D01*
X106684Y183952D01*
X106780Y183721D01*
X106932Y183522D01*
X107131Y183370D01*
X107362Y183274D01*
X107610Y183242D01*
X107858Y183274D01*
X108089Y183370D01*
X108288Y183522D01*
X108440Y183721D01*
X108536Y183952D01*
X108568Y184200D01*
X108536Y184448D01*
X108440Y184679D01*
X108288Y184878D01*
X108089Y185030D01*
X107858Y185126D01*
X107610Y185158D01*
D02*
G37*
G36*
X105070D02*
X104822Y185126D01*
X104591Y185030D01*
X104392Y184878D01*
X104240Y184679D01*
X104144Y184448D01*
X104112Y184200D01*
X104144Y183952D01*
X104240Y183721D01*
X104392Y183522D01*
X104591Y183370D01*
X104822Y183274D01*
X105070Y183242D01*
X105318Y183274D01*
X105549Y183370D01*
X105748Y183522D01*
X105900Y183721D01*
X105996Y183952D01*
X106028Y184200D01*
X105996Y184448D01*
X105900Y184679D01*
X105748Y184878D01*
X105549Y185030D01*
X105318Y185126D01*
X105070Y185158D01*
D02*
G37*
G36*
X99990D02*
X99742Y185126D01*
X99511Y185030D01*
X99312Y184878D01*
X99160Y184679D01*
X99064Y184448D01*
X99032Y184200D01*
X99064Y183952D01*
X99160Y183721D01*
X99312Y183522D01*
X99511Y183370D01*
X99742Y183274D01*
X99990Y183242D01*
X100238Y183274D01*
X100469Y183370D01*
X100668Y183522D01*
X100820Y183721D01*
X100916Y183952D01*
X100948Y184200D01*
X100916Y184448D01*
X100820Y184679D01*
X100668Y184878D01*
X100469Y185030D01*
X100238Y185126D01*
X99990Y185158D01*
D02*
G37*
G36*
X97450D02*
X97202Y185126D01*
X96971Y185030D01*
X96772Y184878D01*
X96620Y184679D01*
X96524Y184448D01*
X96492Y184200D01*
X96524Y183952D01*
X96620Y183721D01*
X96772Y183522D01*
X96971Y183370D01*
X97202Y183274D01*
X97450Y183242D01*
X97698Y183274D01*
X97929Y183370D01*
X98128Y183522D01*
X98280Y183721D01*
X98376Y183952D01*
X98408Y184200D01*
X98376Y184448D01*
X98280Y184679D01*
X98128Y184878D01*
X97929Y185030D01*
X97698Y185126D01*
X97450Y185158D01*
D02*
G37*
G36*
X94910D02*
X94662Y185126D01*
X94431Y185030D01*
X94232Y184878D01*
X94080Y184679D01*
X93984Y184448D01*
X93952Y184200D01*
X93984Y183952D01*
X94080Y183721D01*
X94232Y183522D01*
X94431Y183370D01*
X94662Y183274D01*
X94910Y183242D01*
X95158Y183274D01*
X95389Y183370D01*
X95588Y183522D01*
X95740Y183721D01*
X95836Y183952D01*
X95868Y184200D01*
X95836Y184448D01*
X95740Y184679D01*
X95588Y184878D01*
X95389Y185030D01*
X95158Y185126D01*
X94910Y185158D01*
D02*
G37*
G36*
X92370D02*
X92122Y185126D01*
X91891Y185030D01*
X91692Y184878D01*
X91540Y184679D01*
X91444Y184448D01*
X91412Y184200D01*
X91444Y183952D01*
X91540Y183721D01*
X91692Y183522D01*
X91891Y183370D01*
X92122Y183274D01*
X92370Y183242D01*
X92618Y183274D01*
X92849Y183370D01*
X93048Y183522D01*
X93200Y183721D01*
X93296Y183952D01*
X93328Y184200D01*
X93296Y184448D01*
X93200Y184679D01*
X93048Y184878D01*
X92849Y185030D01*
X92618Y185126D01*
X92370Y185158D01*
D02*
G37*
G36*
X89830D02*
X89582Y185126D01*
X89351Y185030D01*
X89152Y184878D01*
X89000Y184679D01*
X88904Y184448D01*
X88872Y184200D01*
X88904Y183952D01*
X89000Y183721D01*
X89152Y183522D01*
X89351Y183370D01*
X89582Y183274D01*
X89830Y183242D01*
X90078Y183274D01*
X90309Y183370D01*
X90508Y183522D01*
X90660Y183721D01*
X90756Y183952D01*
X90788Y184200D01*
X90756Y184448D01*
X90660Y184679D01*
X90508Y184878D01*
X90309Y185030D01*
X90078Y185126D01*
X89830Y185158D01*
D02*
G37*
G36*
X87290D02*
X87042Y185126D01*
X86811Y185030D01*
X86612Y184878D01*
X86460Y184679D01*
X86364Y184448D01*
X86332Y184200D01*
X86364Y183952D01*
X86460Y183721D01*
X86612Y183522D01*
X86811Y183370D01*
X87042Y183274D01*
X87290Y183242D01*
X87538Y183274D01*
X87769Y183370D01*
X87968Y183522D01*
X88120Y183721D01*
X88216Y183952D01*
X88248Y184200D01*
X88216Y184448D01*
X88120Y184679D01*
X87968Y184878D01*
X87769Y185030D01*
X87538Y185126D01*
X87290Y185158D01*
D02*
G37*
G36*
X84750D02*
X84502Y185126D01*
X84271Y185030D01*
X84072Y184878D01*
X83920Y184679D01*
X83824Y184448D01*
X83792Y184200D01*
X83824Y183952D01*
X83920Y183721D01*
X84072Y183522D01*
X84271Y183370D01*
X84502Y183274D01*
X84750Y183242D01*
X84998Y183274D01*
X85229Y183370D01*
X85428Y183522D01*
X85580Y183721D01*
X85676Y183952D01*
X85708Y184200D01*
X85676Y184448D01*
X85580Y184679D01*
X85428Y184878D01*
X85229Y185030D01*
X84998Y185126D01*
X84750Y185158D01*
D02*
G37*
G36*
X82210D02*
X81962Y185126D01*
X81731Y185030D01*
X81532Y184878D01*
X81380Y184679D01*
X81284Y184448D01*
X81252Y184200D01*
X81284Y183952D01*
X81380Y183721D01*
X81532Y183522D01*
X81731Y183370D01*
X81962Y183274D01*
X82210Y183242D01*
X82458Y183274D01*
X82689Y183370D01*
X82888Y183522D01*
X83040Y183721D01*
X83136Y183952D01*
X83168Y184200D01*
X83136Y184448D01*
X83040Y184679D01*
X82888Y184878D01*
X82689Y185030D01*
X82458Y185126D01*
X82210Y185158D01*
D02*
G37*
G36*
X79670D02*
X79422Y185126D01*
X79191Y185030D01*
X78992Y184878D01*
X78840Y184679D01*
X78744Y184448D01*
X78712Y184200D01*
X78744Y183952D01*
X78840Y183721D01*
X78992Y183522D01*
X79191Y183370D01*
X79422Y183274D01*
X79670Y183242D01*
X79918Y183274D01*
X80149Y183370D01*
X80348Y183522D01*
X80500Y183721D01*
X80596Y183952D01*
X80628Y184200D01*
X80596Y184448D01*
X80500Y184679D01*
X80348Y184878D01*
X80149Y185030D01*
X79918Y185126D01*
X79670Y185158D01*
D02*
G37*
G36*
X77130D02*
X76882Y185126D01*
X76651Y185030D01*
X76452Y184878D01*
X76300Y184679D01*
X76204Y184448D01*
X76172Y184200D01*
X76204Y183952D01*
X76300Y183721D01*
X76452Y183522D01*
X76651Y183370D01*
X76882Y183274D01*
X77130Y183242D01*
X77378Y183274D01*
X77609Y183370D01*
X77808Y183522D01*
X77960Y183721D01*
X78056Y183952D01*
X78088Y184200D01*
X78056Y184448D01*
X77960Y184679D01*
X77808Y184878D01*
X77609Y185030D01*
X77378Y185126D01*
X77130Y185158D01*
D02*
G37*
G36*
X66970D02*
X66722Y185126D01*
X66491Y185030D01*
X66292Y184878D01*
X66140Y184679D01*
X66044Y184448D01*
X66012Y184200D01*
X66044Y183952D01*
X66140Y183721D01*
X66292Y183522D01*
X66491Y183370D01*
X66722Y183274D01*
X66970Y183242D01*
X67218Y183274D01*
X67449Y183370D01*
X67648Y183522D01*
X67800Y183721D01*
X67896Y183952D01*
X67928Y184200D01*
X67896Y184448D01*
X67800Y184679D01*
X67648Y184878D01*
X67449Y185030D01*
X67218Y185126D01*
X66970Y185158D01*
D02*
G37*
G36*
X103526Y184073D02*
X102657D01*
Y183204D01*
X102792Y183222D01*
X103036Y183323D01*
X103246Y183484D01*
X103407Y183694D01*
X103508Y183938D01*
X103526Y184073D01*
D02*
G37*
G36*
X70506D02*
X69637D01*
Y183204D01*
X69772Y183222D01*
X70016Y183323D01*
X70226Y183484D01*
X70387Y183694D01*
X70488Y183938D01*
X70506Y184073D01*
D02*
G37*
G36*
X102403D02*
X101534D01*
X101552Y183938D01*
X101653Y183694D01*
X101814Y183484D01*
X102024Y183323D01*
X102268Y183222D01*
X102403Y183204D01*
Y184073D01*
D02*
G37*
G36*
X69383D02*
X68514D01*
X68532Y183938D01*
X68633Y183694D01*
X68794Y183484D01*
X69004Y183323D01*
X69248Y183222D01*
X69383Y183204D01*
Y184073D01*
D02*
G37*
G36*
X126100Y185908D02*
X125767Y185875D01*
X125446Y185778D01*
X125151Y185620D01*
X124892Y185408D01*
X124680Y185149D01*
X124522Y184854D01*
X124425Y184533D01*
X124392Y184200D01*
X124425Y183867D01*
X124522Y183546D01*
X124680Y183251D01*
X124892Y182992D01*
X125151Y182780D01*
X125446Y182622D01*
X125767Y182525D01*
X126100Y182492D01*
X126433Y182525D01*
X126754Y182622D01*
X127049Y182780D01*
X127308Y182992D01*
X127520Y183251D01*
X127678Y183546D01*
X127775Y183867D01*
X127808Y184200D01*
X127775Y184533D01*
X127678Y184854D01*
X127520Y185149D01*
X127308Y185408D01*
X127049Y185620D01*
X126754Y185778D01*
X126433Y185875D01*
X126100Y185908D01*
D02*
G37*
G36*
X56100D02*
X55767Y185875D01*
X55446Y185778D01*
X55151Y185620D01*
X54892Y185408D01*
X54680Y185149D01*
X54522Y184854D01*
X54425Y184533D01*
X54392Y184200D01*
X54425Y183867D01*
X54522Y183546D01*
X54680Y183251D01*
X54892Y182992D01*
X55151Y182780D01*
X55446Y182622D01*
X55767Y182525D01*
X56100Y182492D01*
X56433Y182525D01*
X56754Y182622D01*
X57049Y182780D01*
X57308Y182992D01*
X57520Y183251D01*
X57678Y183546D01*
X57775Y183867D01*
X57808Y184200D01*
X57775Y184533D01*
X57678Y184854D01*
X57520Y185149D01*
X57308Y185408D01*
X57049Y185620D01*
X56754Y185778D01*
X56433Y185875D01*
X56100Y185908D01*
D02*
G37*
G36*
X108600Y181761D02*
X108385Y181718D01*
X108203Y181597D01*
X108142Y181504D01*
X77056Y181407D01*
X76997Y181497D01*
X76815Y181618D01*
X76600Y181661D01*
X76385Y181618D01*
X76203Y181497D01*
X76082Y181315D01*
X76039Y181100D01*
X76082Y180885D01*
X76203Y180703D01*
X76385Y180582D01*
X76600Y180539D01*
X76815Y180582D01*
X76997Y180703D01*
X77058Y180796D01*
X108144Y180893D01*
X108203Y180803D01*
X108385Y180682D01*
X108600Y180639D01*
X108815Y180682D01*
X108997Y180803D01*
X109118Y180985D01*
X109161Y181200D01*
X109118Y181415D01*
X108997Y181597D01*
X108815Y181718D01*
X108600Y181761D01*
D02*
G37*
G36*
X99007Y179736D02*
Y178867D01*
X99876D01*
X99858Y179002D01*
X99757Y179246D01*
X99596Y179456D01*
X99386Y179617D01*
X99142Y179718D01*
X99007Y179736D01*
D02*
G37*
G36*
X98753D02*
X98618Y179718D01*
X98374Y179617D01*
X98164Y179456D01*
X98003Y179246D01*
X97902Y179002D01*
X97884Y178867D01*
X98753D01*
Y179736D01*
D02*
G37*
G36*
X101420Y179698D02*
X101172Y179666D01*
X100941Y179570D01*
X100742Y179418D01*
X100590Y179219D01*
X100494Y178988D01*
X100462Y178740D01*
X100494Y178492D01*
X100590Y178261D01*
X100742Y178062D01*
X100941Y177910D01*
X101172Y177814D01*
X101420Y177782D01*
X101668Y177814D01*
X101899Y177910D01*
X102098Y178062D01*
X102250Y178261D01*
X102346Y178492D01*
X102378Y178740D01*
X102346Y178988D01*
X102250Y179219D01*
X102098Y179418D01*
X101899Y179570D01*
X101668Y179666D01*
X101420Y179698D01*
D02*
G37*
G36*
X96340D02*
X96092Y179666D01*
X95861Y179570D01*
X95662Y179418D01*
X95510Y179219D01*
X95414Y178988D01*
X95382Y178740D01*
X95414Y178492D01*
X95510Y178261D01*
X95662Y178062D01*
X95861Y177910D01*
X96092Y177814D01*
X96340Y177782D01*
X96588Y177814D01*
X96819Y177910D01*
X97018Y178062D01*
X97170Y178261D01*
X97266Y178492D01*
X97298Y178740D01*
X97266Y178988D01*
X97170Y179219D01*
X97018Y179418D01*
X96819Y179570D01*
X96588Y179666D01*
X96340Y179698D01*
D02*
G37*
G36*
X93800D02*
X93552Y179666D01*
X93321Y179570D01*
X93122Y179418D01*
X92970Y179219D01*
X92874Y178988D01*
X92842Y178740D01*
X92874Y178492D01*
X92970Y178261D01*
X93122Y178062D01*
X93321Y177910D01*
X93552Y177814D01*
X93800Y177782D01*
X94048Y177814D01*
X94279Y177910D01*
X94478Y178062D01*
X94630Y178261D01*
X94726Y178492D01*
X94758Y178740D01*
X94726Y178988D01*
X94630Y179219D01*
X94478Y179418D01*
X94279Y179570D01*
X94048Y179666D01*
X93800Y179698D01*
D02*
G37*
G36*
X99876Y178613D02*
X99007D01*
Y177744D01*
X99142Y177762D01*
X99386Y177863D01*
X99596Y178024D01*
X99757Y178234D01*
X99858Y178478D01*
X99876Y178613D01*
D02*
G37*
G36*
X98753D02*
X97884D01*
X97902Y178478D01*
X98003Y178234D01*
X98164Y178024D01*
X98374Y177863D01*
X98618Y177762D01*
X98753Y177744D01*
Y178613D01*
D02*
G37*
G36*
X87227Y178091D02*
Y177627D01*
X87691D01*
X87669Y177736D01*
X87535Y177935D01*
X87336Y178069D01*
X87227Y178091D01*
D02*
G37*
G36*
X86973D02*
X86864Y178069D01*
X86665Y177935D01*
X86531Y177736D01*
X86509Y177627D01*
X86973D01*
Y178091D01*
D02*
G37*
G36*
X108900Y177861D02*
X108685Y177818D01*
X108503Y177697D01*
X108477Y177657D01*
X102520D01*
X102383Y177630D01*
X102268Y177552D01*
X101790Y177075D01*
X101668Y177126D01*
X101420Y177158D01*
X101172Y177126D01*
X100941Y177030D01*
X100742Y176878D01*
X100590Y176679D01*
X100494Y176448D01*
X100462Y176200D01*
X100494Y175952D01*
X100590Y175721D01*
X100742Y175522D01*
X100941Y175370D01*
X101172Y175274D01*
X101420Y175242D01*
X101668Y175274D01*
X101899Y175370D01*
X102098Y175522D01*
X102250Y175721D01*
X102346Y175952D01*
X102378Y176200D01*
X102346Y176448D01*
X102295Y176570D01*
X102668Y176943D01*
X108477D01*
X108503Y176903D01*
X108685Y176782D01*
X108900Y176739D01*
X109115Y176782D01*
X109297Y176903D01*
X109418Y177085D01*
X109461Y177300D01*
X109418Y177515D01*
X109297Y177697D01*
X109115Y177818D01*
X108900Y177861D01*
D02*
G37*
G36*
X87691Y177373D02*
X87227D01*
Y176909D01*
X87336Y176931D01*
X87535Y177065D01*
X87669Y177264D01*
X87691Y177373D01*
D02*
G37*
G36*
X86973D02*
X86509D01*
X86531Y177264D01*
X86665Y177065D01*
X86864Y176931D01*
X86973Y176909D01*
Y177373D01*
D02*
G37*
G36*
X99007Y177196D02*
Y176327D01*
X99876D01*
X99858Y176462D01*
X99757Y176706D01*
X99596Y176916D01*
X99386Y177077D01*
X99142Y177178D01*
X99007Y177196D01*
D02*
G37*
G36*
X98753D02*
X98618Y177178D01*
X98374Y177077D01*
X98164Y176916D01*
X98003Y176706D01*
X97902Y176462D01*
X97884Y176327D01*
X98753D01*
Y177196D01*
D02*
G37*
G36*
X80227Y176391D02*
Y175927D01*
X80691D01*
X80669Y176036D01*
X80535Y176235D01*
X80336Y176369D01*
X80227Y176391D01*
D02*
G37*
G36*
X79973D02*
X79864Y176369D01*
X79665Y176235D01*
X79531Y176036D01*
X79509Y175927D01*
X79973D01*
Y176391D01*
D02*
G37*
G36*
X96340Y177158D02*
X96092Y177126D01*
X95861Y177030D01*
X95662Y176878D01*
X95510Y176679D01*
X95414Y176448D01*
X95382Y176200D01*
X95414Y175952D01*
X95510Y175721D01*
X95662Y175522D01*
X95861Y175370D01*
X96092Y175274D01*
X96340Y175242D01*
X96588Y175274D01*
X96819Y175370D01*
X97018Y175522D01*
X97170Y175721D01*
X97266Y175952D01*
X97298Y176200D01*
X97266Y176448D01*
X97170Y176679D01*
X97018Y176878D01*
X96819Y177030D01*
X96588Y177126D01*
X96340Y177158D01*
D02*
G37*
G36*
X80691Y175673D02*
X80227D01*
Y175209D01*
X80336Y175231D01*
X80535Y175365D01*
X80669Y175564D01*
X80691Y175673D01*
D02*
G37*
G36*
X79973D02*
X79509D01*
X79531Y175564D01*
X79665Y175365D01*
X79864Y175231D01*
X79973Y175209D01*
Y175673D01*
D02*
G37*
G36*
X99876Y176073D02*
X99007D01*
Y175204D01*
X99142Y175222D01*
X99386Y175323D01*
X99596Y175484D01*
X99757Y175694D01*
X99858Y175938D01*
X99876Y176073D01*
D02*
G37*
G36*
X98753D02*
X97884D01*
X97902Y175938D01*
X98003Y175694D01*
X98164Y175484D01*
X98374Y175323D01*
X98618Y175222D01*
X98753Y175204D01*
Y176073D01*
D02*
G37*
G36*
X110827Y173791D02*
Y173327D01*
X111291D01*
X111269Y173436D01*
X111135Y173635D01*
X110936Y173769D01*
X110827Y173791D01*
D02*
G37*
G36*
X110573D02*
X110464Y173769D01*
X110265Y173635D01*
X110131Y173436D01*
X110109Y173327D01*
X110573D01*
Y173791D01*
D02*
G37*
G36*
X111291Y173073D02*
X110827D01*
Y172609D01*
X110936Y172631D01*
X111135Y172765D01*
X111269Y172964D01*
X111291Y173073D01*
D02*
G37*
G36*
X110573D02*
X110109D01*
X110131Y172964D01*
X110265Y172765D01*
X110464Y172631D01*
X110573Y172609D01*
Y173073D01*
D02*
G37*
G36*
X68827Y173048D02*
Y171927D01*
X69948D01*
X69922Y172127D01*
X69795Y172432D01*
X69594Y172694D01*
X69332Y172895D01*
X69027Y173022D01*
X68827Y173048D01*
D02*
G37*
G36*
X48227D02*
Y171927D01*
X49348D01*
X49322Y172127D01*
X49195Y172432D01*
X48994Y172694D01*
X48732Y172895D01*
X48427Y173022D01*
X48227Y173048D01*
D02*
G37*
G36*
X68573Y173048D02*
X68373Y173022D01*
X68068Y172895D01*
X67806Y172694D01*
X67605Y172432D01*
X67478Y172127D01*
X67452Y171927D01*
X68573D01*
Y173048D01*
D02*
G37*
G36*
X47973D02*
X47773Y173022D01*
X47468Y172895D01*
X47206Y172694D01*
X47005Y172432D01*
X46878Y172127D01*
X46852Y171927D01*
X47973D01*
Y173048D01*
D02*
G37*
G36*
X107627Y171591D02*
Y171127D01*
X108091D01*
X108069Y171236D01*
X107935Y171435D01*
X107736Y171569D01*
X107627Y171591D01*
D02*
G37*
G36*
X107373D02*
X107264Y171569D01*
X107065Y171435D01*
X106931Y171236D01*
X106909Y171127D01*
X107373D01*
Y171591D01*
D02*
G37*
G36*
X63700Y173010D02*
X63387Y172969D01*
X63095Y172848D01*
X62844Y172656D01*
X62652Y172405D01*
X62531Y172113D01*
X62490Y171800D01*
X62531Y171487D01*
X62652Y171195D01*
X62844Y170944D01*
X63095Y170752D01*
X63387Y170631D01*
X63700Y170590D01*
X64013Y170631D01*
X64305Y170752D01*
X64556Y170944D01*
X64748Y171195D01*
X64869Y171487D01*
X64910Y171800D01*
X64869Y172113D01*
X64748Y172405D01*
X64556Y172656D01*
X64305Y172848D01*
X64013Y172969D01*
X63700Y173010D01*
D02*
G37*
G36*
X58700D02*
X58387Y172969D01*
X58095Y172848D01*
X57844Y172656D01*
X57652Y172405D01*
X57531Y172113D01*
X57490Y171800D01*
X57531Y171487D01*
X57652Y171195D01*
X57844Y170944D01*
X58095Y170752D01*
X58387Y170631D01*
X58700Y170590D01*
X59013Y170631D01*
X59305Y170752D01*
X59556Y170944D01*
X59748Y171195D01*
X59869Y171487D01*
X59910Y171800D01*
X59869Y172113D01*
X59748Y172405D01*
X59556Y172656D01*
X59305Y172848D01*
X59013Y172969D01*
X58700Y173010D01*
D02*
G37*
G36*
X43100D02*
X42787Y172969D01*
X42495Y172848D01*
X42244Y172656D01*
X42052Y172405D01*
X41931Y172113D01*
X41890Y171800D01*
X41931Y171487D01*
X42052Y171195D01*
X42244Y170944D01*
X42495Y170752D01*
X42787Y170631D01*
X43100Y170590D01*
X43413Y170631D01*
X43705Y170752D01*
X43956Y170944D01*
X44148Y171195D01*
X44269Y171487D01*
X44310Y171800D01*
X44269Y172113D01*
X44148Y172405D01*
X43956Y172656D01*
X43705Y172848D01*
X43413Y172969D01*
X43100Y173010D01*
D02*
G37*
G36*
X38100D02*
X37787Y172969D01*
X37495Y172848D01*
X37244Y172656D01*
X37052Y172405D01*
X36931Y172113D01*
X36890Y171800D01*
X36931Y171487D01*
X37052Y171195D01*
X37244Y170944D01*
X37495Y170752D01*
X37787Y170631D01*
X38100Y170590D01*
X38413Y170631D01*
X38705Y170752D01*
X38956Y170944D01*
X39148Y171195D01*
X39269Y171487D01*
X39310Y171800D01*
X39269Y172113D01*
X39148Y172405D01*
X38956Y172656D01*
X38705Y172848D01*
X38413Y172969D01*
X38100Y173010D01*
D02*
G37*
G36*
X69948Y171673D02*
X68827D01*
Y170552D01*
X69027Y170578D01*
X69332Y170705D01*
X69594Y170906D01*
X69795Y171168D01*
X69922Y171473D01*
X69948Y171673D01*
D02*
G37*
G36*
X49348D02*
X48227D01*
Y170552D01*
X48427Y170578D01*
X48732Y170705D01*
X48994Y170906D01*
X49195Y171168D01*
X49322Y171473D01*
X49348Y171673D01*
D02*
G37*
G36*
X68573D02*
X67452D01*
X67478Y171473D01*
X67605Y171168D01*
X67806Y170906D01*
X68068Y170705D01*
X68373Y170578D01*
X68573Y170552D01*
Y171673D01*
D02*
G37*
G36*
X47973D02*
X46852D01*
X46878Y171473D01*
X47005Y171168D01*
X47206Y170906D01*
X47468Y170705D01*
X47773Y170578D01*
X47973Y170552D01*
Y171673D01*
D02*
G37*
G36*
X77700Y170747D02*
X77491Y170719D01*
X77297Y170639D01*
X77129Y170511D01*
X77001Y170343D01*
X76921Y170149D01*
X76893Y169940D01*
X76921Y169731D01*
X77001Y169537D01*
X77129Y169369D01*
X77297Y169241D01*
X77491Y169161D01*
X77700Y169133D01*
X77909Y169161D01*
X78103Y169241D01*
X78271Y169369D01*
X78399Y169537D01*
X78479Y169731D01*
X78507Y169940D01*
X78479Y170149D01*
X78399Y170343D01*
X78271Y170511D01*
X78103Y170639D01*
X77909Y170719D01*
X77700Y170747D01*
D02*
G37*
G36*
X137627Y169551D02*
Y167627D01*
X139551D01*
X139524Y167903D01*
X139407Y168290D01*
X139216Y168647D01*
X138959Y168959D01*
X138647Y169216D01*
X138290Y169407D01*
X137903Y169524D01*
X137627Y169551D01*
D02*
G37*
G36*
X137373Y169551D02*
X137097Y169524D01*
X136710Y169407D01*
X136353Y169216D01*
X136041Y168959D01*
X135784Y168647D01*
X135593Y168290D01*
X135476Y167903D01*
X135449Y167627D01*
X137373D01*
Y169551D01*
D02*
G37*
G36*
X79627Y166191D02*
Y165727D01*
X80091D01*
X80069Y165836D01*
X79935Y166035D01*
X79736Y166169D01*
X79627Y166191D01*
D02*
G37*
G36*
X79373D02*
X79264Y166169D01*
X79065Y166035D01*
X78931Y165836D01*
X78909Y165727D01*
X79373D01*
Y166191D01*
D02*
G37*
G36*
X137373Y167373D02*
X135449D01*
X135476Y167097D01*
X135593Y166710D01*
X135784Y166353D01*
X136041Y166041D01*
X136353Y165784D01*
X136710Y165593D01*
X137097Y165476D01*
X137373Y165449D01*
Y167373D01*
D02*
G37*
G36*
X139551D02*
X137627D01*
Y165449D01*
X137903Y165476D01*
X138290Y165593D01*
X138647Y165784D01*
X138959Y166041D01*
X139216Y166353D01*
X139407Y166710D01*
X139524Y167097D01*
X139551Y167373D01*
D02*
G37*
G36*
X80091Y165473D02*
X79627D01*
Y165009D01*
X79736Y165031D01*
X79935Y165165D01*
X80069Y165364D01*
X80091Y165473D01*
D02*
G37*
G36*
X79373D02*
X78909D01*
X78931Y165364D01*
X79065Y165165D01*
X79264Y165031D01*
X79373Y165009D01*
Y165473D01*
D02*
G37*
G36*
X77700Y165867D02*
X77491Y165839D01*
X77297Y165759D01*
X77129Y165631D01*
X77001Y165463D01*
X76921Y165269D01*
X76893Y165060D01*
X76921Y164851D01*
X77001Y164657D01*
X77129Y164489D01*
X77297Y164361D01*
X77491Y164281D01*
X77700Y164253D01*
X77909Y164281D01*
X78103Y164361D01*
X78271Y164489D01*
X78399Y164657D01*
X78479Y164851D01*
X78507Y165060D01*
X78479Y165269D01*
X78399Y165463D01*
X78271Y165631D01*
X78103Y165759D01*
X77909Y165839D01*
X77700Y165867D01*
D02*
G37*
G36*
X92127Y164091D02*
Y163627D01*
X92591D01*
X92569Y163736D01*
X92435Y163935D01*
X92236Y164069D01*
X92127Y164091D01*
D02*
G37*
G36*
X91873D02*
X91764Y164069D01*
X91565Y163935D01*
X91431Y163736D01*
X91409Y163627D01*
X91873D01*
Y164091D01*
D02*
G37*
G36*
X92591Y163373D02*
X92127D01*
Y162909D01*
X92236Y162931D01*
X92435Y163065D01*
X92569Y163264D01*
X92591Y163373D01*
D02*
G37*
G36*
X91873D02*
X91409D01*
X91431Y163264D01*
X91565Y163065D01*
X91764Y162931D01*
X91873Y162909D01*
Y163373D01*
D02*
G37*
G36*
X119027Y162086D02*
Y161623D01*
X119491D01*
X119469Y161731D01*
X119335Y161931D01*
X119136Y162065D01*
X119027Y162086D01*
D02*
G37*
G36*
X118773D02*
X118664Y162065D01*
X118465Y161931D01*
X118331Y161731D01*
X118309Y161623D01*
X118773D01*
Y162086D01*
D02*
G37*
G36*
X49800Y163861D02*
X49585Y163818D01*
X49403Y163697D01*
X49282Y163515D01*
X49239Y163300D01*
X49282Y163085D01*
X49403Y162903D01*
X49443Y162877D01*
Y162123D01*
X49403Y162097D01*
X49282Y161915D01*
X49239Y161700D01*
X49282Y161485D01*
X49403Y161303D01*
X49585Y161182D01*
X49800Y161139D01*
X50015Y161182D01*
X50197Y161303D01*
X50318Y161485D01*
X50361Y161700D01*
X50318Y161915D01*
X50197Y162097D01*
X50157Y162123D01*
Y162877D01*
X50197Y162903D01*
X50318Y163085D01*
X50361Y163300D01*
X50318Y163515D01*
X50197Y163697D01*
X50015Y163818D01*
X49800Y163861D01*
D02*
G37*
G36*
X119491Y161369D02*
X119027D01*
Y160905D01*
X119136Y160927D01*
X119335Y161060D01*
X119469Y161260D01*
X119491Y161369D01*
D02*
G37*
G36*
X118773D02*
X118309D01*
X118331Y161260D01*
X118465Y161060D01*
X118664Y160927D01*
X118773Y160905D01*
Y161369D01*
D02*
G37*
G36*
X137500Y164810D02*
X137108Y164771D01*
X136731Y164657D01*
X136383Y164471D01*
X136079Y164221D01*
X135829Y163917D01*
X135643Y163569D01*
X135529Y163192D01*
X135490Y162800D01*
X135529Y162408D01*
X135643Y162031D01*
X135829Y161683D01*
X136079Y161379D01*
X136383Y161129D01*
X136731Y160943D01*
X137108Y160829D01*
X137500Y160790D01*
X137892Y160829D01*
X138269Y160943D01*
X138617Y161129D01*
X138921Y161379D01*
X139171Y161683D01*
X139357Y162031D01*
X139471Y162408D01*
X139510Y162800D01*
X139471Y163192D01*
X139357Y163569D01*
X139171Y163917D01*
X138921Y164221D01*
X138617Y164471D01*
X138269Y164657D01*
X137892Y164771D01*
X137500Y164810D01*
D02*
G37*
G36*
X51127Y160391D02*
Y159927D01*
X51591D01*
X51569Y160036D01*
X51435Y160235D01*
X51236Y160369D01*
X51127Y160391D01*
D02*
G37*
G36*
X50873D02*
X50764Y160369D01*
X50565Y160235D01*
X50431Y160036D01*
X50409Y159927D01*
X50873D01*
Y160391D01*
D02*
G37*
G36*
X101900Y163361D02*
X101685Y163318D01*
X101503Y163197D01*
X101382Y163015D01*
X101339Y162800D01*
X101382Y162585D01*
X101503Y162403D01*
X101594Y162343D01*
Y160383D01*
X101482Y160215D01*
X101439Y160000D01*
X101482Y159785D01*
X101603Y159603D01*
X101785Y159482D01*
X102000Y159439D01*
X102215Y159482D01*
X102397Y159603D01*
X102518Y159785D01*
X102561Y160000D01*
X102518Y160215D01*
X102397Y160397D01*
X102215Y160518D01*
X102206Y160520D01*
Y162343D01*
X102297Y162403D01*
X102418Y162585D01*
X102461Y162800D01*
X102418Y163015D01*
X102297Y163197D01*
X102115Y163318D01*
X101900Y163361D01*
D02*
G37*
G36*
X51591Y159673D02*
X51127D01*
Y159209D01*
X51236Y159231D01*
X51435Y159365D01*
X51569Y159564D01*
X51591Y159673D01*
D02*
G37*
G36*
X50873D02*
X50409D01*
X50431Y159564D01*
X50565Y159365D01*
X50764Y159231D01*
X50873Y159209D01*
Y159673D01*
D02*
G37*
G36*
X67200Y164661D02*
X66985Y164618D01*
X66803Y164497D01*
X66682Y164315D01*
X66639Y164100D01*
X66682Y163885D01*
X66803Y163703D01*
X66985Y163582D01*
X67200Y163539D01*
X67415Y163582D01*
X67503Y163641D01*
X70078D01*
X70103Y163603D01*
X70143Y163577D01*
Y160072D01*
X70088Y160036D01*
X69967Y159854D01*
X69924Y159639D01*
X69967Y159424D01*
X70088Y159242D01*
X70270Y159121D01*
X70485Y159078D01*
X70700Y159121D01*
X70882Y159242D01*
X71003Y159424D01*
X71046Y159639D01*
X71003Y159854D01*
X70882Y160036D01*
X70857Y160052D01*
Y163577D01*
X70897Y163603D01*
X70986Y163737D01*
X71024Y163776D01*
X71124Y163924D01*
X71159Y164100D01*
X71124Y164276D01*
X71024Y164424D01*
X70876Y164524D01*
X70700Y164559D01*
X70510D01*
X70500Y164561D01*
X70490Y164559D01*
X67503D01*
X67415Y164618D01*
X67200Y164661D01*
D02*
G37*
G36*
X137500Y160110D02*
X137108Y160071D01*
X136731Y159957D01*
X136383Y159771D01*
X136079Y159521D01*
X135829Y159217D01*
X135643Y158869D01*
X135529Y158492D01*
X135490Y158100D01*
X135529Y157708D01*
X135643Y157331D01*
X135829Y156983D01*
X136079Y156679D01*
X136383Y156429D01*
X136731Y156243D01*
X137108Y156129D01*
X137500Y156090D01*
X137892Y156129D01*
X138269Y156243D01*
X138617Y156429D01*
X138921Y156679D01*
X139171Y156983D01*
X139357Y157331D01*
X139471Y157708D01*
X139510Y158100D01*
X139471Y158492D01*
X139357Y158869D01*
X139171Y159217D01*
X138921Y159521D01*
X138617Y159771D01*
X138269Y159957D01*
X137892Y160071D01*
X137500Y160110D01*
D02*
G37*
G36*
X128397Y156267D02*
Y155804D01*
X128861D01*
X128839Y155912D01*
X128705Y156112D01*
X128506Y156246D01*
X128397Y156267D01*
D02*
G37*
G36*
X128143D02*
X128034Y156246D01*
X127835Y156112D01*
X127701Y155912D01*
X127679Y155804D01*
X128143D01*
Y156267D01*
D02*
G37*
G36*
X104800Y158461D02*
X104585Y158418D01*
X104403Y158297D01*
X104282Y158115D01*
X104239Y157900D01*
X104282Y157685D01*
X104403Y157503D01*
X104585Y157382D01*
X104800Y157339D01*
X105015Y157382D01*
X105197Y157503D01*
X105223Y157543D01*
X118052D01*
X119249Y156347D01*
X119239Y156300D01*
X119282Y156085D01*
X119403Y155903D01*
X119585Y155782D01*
X119800Y155739D01*
X120015Y155782D01*
X120197Y155903D01*
X120318Y156085D01*
X120361Y156300D01*
X120318Y156515D01*
X120197Y156697D01*
X120015Y156818D01*
X119800Y156861D01*
X119753Y156851D01*
X118452Y158152D01*
X118337Y158230D01*
X118200Y158257D01*
X105223D01*
X105197Y158297D01*
X105015Y158418D01*
X104800Y158461D01*
D02*
G37*
G36*
X128861Y155550D02*
X128397D01*
Y155086D01*
X128506Y155108D01*
X128705Y155241D01*
X128839Y155441D01*
X128861Y155550D01*
D02*
G37*
G36*
X128143D02*
X127679D01*
X127701Y155441D01*
X127835Y155241D01*
X128034Y155108D01*
X128143Y155086D01*
Y155550D01*
D02*
G37*
G36*
X113055Y155327D02*
Y154864D01*
X113519D01*
X113497Y154972D01*
X113364Y155172D01*
X113164Y155306D01*
X113055Y155327D01*
D02*
G37*
G36*
X112801D02*
X112693Y155306D01*
X112493Y155172D01*
X112359Y154972D01*
X112338Y154864D01*
X112801D01*
Y155327D01*
D02*
G37*
G36*
X113519Y154610D02*
X113055D01*
Y154146D01*
X113164Y154168D01*
X113364Y154301D01*
X113497Y154501D01*
X113519Y154610D01*
D02*
G37*
G36*
X112801D02*
X112338D01*
X112359Y154501D01*
X112493Y154301D01*
X112693Y154168D01*
X112801Y154146D01*
Y154610D01*
D02*
G37*
G36*
X41527Y153691D02*
Y153227D01*
X41991D01*
X41969Y153336D01*
X41835Y153535D01*
X41636Y153669D01*
X41527Y153691D01*
D02*
G37*
G36*
X41273D02*
X41164Y153669D01*
X40965Y153535D01*
X40831Y153336D01*
X40809Y153227D01*
X41273D01*
Y153691D01*
D02*
G37*
G36*
X98327Y153291D02*
Y152827D01*
X98791D01*
X98769Y152936D01*
X98635Y153135D01*
X98436Y153269D01*
X98327Y153291D01*
D02*
G37*
G36*
X98073D02*
X97964Y153269D01*
X97765Y153135D01*
X97631Y152936D01*
X97609Y152827D01*
X98073D01*
Y153291D01*
D02*
G37*
G36*
X41991Y152973D02*
X41527D01*
Y152509D01*
X41636Y152531D01*
X41835Y152665D01*
X41969Y152864D01*
X41991Y152973D01*
D02*
G37*
G36*
X41273D02*
X40809D01*
X40831Y152864D01*
X40965Y152665D01*
X41164Y152531D01*
X41273Y152509D01*
Y152973D01*
D02*
G37*
G36*
X98791Y152573D02*
X98327D01*
Y152109D01*
X98436Y152131D01*
X98635Y152265D01*
X98769Y152464D01*
X98791Y152573D01*
D02*
G37*
G36*
X98073D02*
X97609D01*
X97631Y152464D01*
X97765Y152265D01*
X97964Y152131D01*
X98073Y152109D01*
Y152573D01*
D02*
G37*
G36*
X68100Y144961D02*
X67885Y144918D01*
X67703Y144797D01*
X67643Y144706D01*
X66757D01*
X66697Y144797D01*
X66515Y144918D01*
X66300Y144961D01*
X66085Y144918D01*
X65903Y144797D01*
X65782Y144615D01*
X65739Y144400D01*
X65782Y144185D01*
X65903Y144003D01*
X66085Y143882D01*
X66300Y143839D01*
X66515Y143882D01*
X66697Y144003D01*
X66757Y144094D01*
X67643D01*
X67703Y144003D01*
X67885Y143882D01*
X68100Y143839D01*
X68315Y143882D01*
X68497Y144003D01*
X68618Y144185D01*
X68661Y144400D01*
X68618Y144615D01*
X68497Y144797D01*
X68315Y144918D01*
X68100Y144961D01*
D02*
G37*
G36*
X88189Y143995D02*
X87974Y143952D01*
X87792Y143830D01*
X87671Y143648D01*
X87628Y143434D01*
X87671Y143219D01*
X87792Y143037D01*
X87974Y142916D01*
X88189Y142873D01*
X88403Y142916D01*
X88585Y143037D01*
X88646Y143128D01*
X89820D01*
X89903Y143003D01*
X90085Y142882D01*
X90300Y142839D01*
X90515Y142882D01*
X90697Y143003D01*
X90818Y143185D01*
X90861Y143400D01*
X90818Y143615D01*
X90697Y143797D01*
X90515Y143918D01*
X90300Y143961D01*
X90085Y143918D01*
X89903Y143797D01*
X89865Y143740D01*
X88646D01*
X88585Y143830D01*
X88403Y143952D01*
X88189Y143995D01*
D02*
G37*
G36*
X43600Y141161D02*
X43385Y141118D01*
X43203Y140997D01*
X43177Y140957D01*
X42523D01*
X42497Y140997D01*
X42315Y141118D01*
X42100Y141161D01*
X41885Y141118D01*
X41703Y140997D01*
X41582Y140815D01*
X41539Y140600D01*
X41582Y140385D01*
X41703Y140203D01*
X41885Y140082D01*
X42100Y140039D01*
X42315Y140082D01*
X42497Y140203D01*
X42523Y140243D01*
X43177D01*
X43203Y140203D01*
X43385Y140082D01*
X43600Y140039D01*
X43815Y140082D01*
X43997Y140203D01*
X44118Y140385D01*
X44161Y140600D01*
X44118Y140815D01*
X43997Y140997D01*
X43815Y141118D01*
X43600Y141161D01*
D02*
G37*
G36*
X36900D02*
X36685Y141118D01*
X36503Y140997D01*
X36410Y140857D01*
X34023D01*
X33997Y140897D01*
X33815Y141018D01*
X33600Y141061D01*
X33385Y141018D01*
X33203Y140897D01*
X33082Y140715D01*
X33039Y140500D01*
X33082Y140285D01*
X33203Y140103D01*
X33385Y139982D01*
X33600Y139939D01*
X33815Y139982D01*
X33997Y140103D01*
X34023Y140143D01*
X36594D01*
X36685Y140082D01*
X36900Y140039D01*
X37115Y140082D01*
X37297Y140203D01*
X37418Y140385D01*
X37461Y140600D01*
X37418Y140815D01*
X37297Y140997D01*
X37115Y141118D01*
X36900Y141161D01*
D02*
G37*
G36*
X128127Y140491D02*
Y140027D01*
X128591D01*
X128569Y140136D01*
X128435Y140335D01*
X128236Y140469D01*
X128127Y140491D01*
D02*
G37*
G36*
X127873D02*
X127764Y140469D01*
X127565Y140335D01*
X127431Y140136D01*
X127409Y140027D01*
X127873D01*
Y140491D01*
D02*
G37*
G36*
X66200Y140161D02*
X65985Y140118D01*
X65803Y139997D01*
X65777Y139957D01*
X59023D01*
X58997Y139997D01*
X58815Y140118D01*
X58600Y140161D01*
X58385Y140118D01*
X58203Y139997D01*
X58082Y139815D01*
X58039Y139600D01*
X58082Y139385D01*
X58203Y139203D01*
X58385Y139082D01*
X58600Y139039D01*
X58815Y139082D01*
X58997Y139203D01*
X59023Y139243D01*
X65777D01*
X65803Y139203D01*
X65985Y139082D01*
X66200Y139039D01*
X66415Y139082D01*
X66597Y139203D01*
X66718Y139385D01*
X66761Y139600D01*
X66718Y139815D01*
X66597Y139997D01*
X66415Y140118D01*
X66200Y140161D01*
D02*
G37*
G36*
X128591Y139773D02*
X128127D01*
Y139309D01*
X128236Y139331D01*
X128435Y139465D01*
X128569Y139664D01*
X128591Y139773D01*
D02*
G37*
G36*
X127873D02*
X127409D01*
X127431Y139664D01*
X127565Y139465D01*
X127764Y139331D01*
X127873Y139309D01*
Y139773D01*
D02*
G37*
G36*
X62900Y135608D02*
X62586Y135577D01*
X62285Y135485D01*
X62007Y135337D01*
X61763Y135137D01*
X61563Y134893D01*
X61415Y134615D01*
X61323Y134314D01*
X61292Y134000D01*
X61323Y133686D01*
X61415Y133385D01*
X61563Y133107D01*
X61763Y132863D01*
X62007Y132663D01*
X62285Y132515D01*
X62586Y132423D01*
X62900Y132392D01*
X63214Y132423D01*
X63515Y132515D01*
X63793Y132663D01*
X64037Y132863D01*
X64237Y133107D01*
X64385Y133385D01*
X64477Y133686D01*
X64508Y134000D01*
X64477Y134314D01*
X64385Y134615D01*
X64237Y134893D01*
X64037Y135137D01*
X63793Y135337D01*
X63515Y135485D01*
X63214Y135577D01*
X62900Y135608D01*
D02*
G37*
G36*
X56100D02*
X55786Y135577D01*
X55485Y135485D01*
X55207Y135337D01*
X54963Y135137D01*
X54763Y134893D01*
X54615Y134615D01*
X54523Y134314D01*
X54492Y134000D01*
X54523Y133686D01*
X54615Y133385D01*
X54763Y133107D01*
X54963Y132863D01*
X55207Y132663D01*
X55485Y132515D01*
X55786Y132423D01*
X56100Y132392D01*
X56414Y132423D01*
X56715Y132515D01*
X56993Y132663D01*
X57237Y132863D01*
X57437Y133107D01*
X57585Y133385D01*
X57677Y133686D01*
X57708Y134000D01*
X57677Y134314D01*
X57585Y134615D01*
X57437Y134893D01*
X57237Y135137D01*
X56993Y135337D01*
X56715Y135485D01*
X56414Y135577D01*
X56100Y135608D01*
D02*
G37*
G36*
X76400Y134461D02*
X76185Y134418D01*
X76003Y134297D01*
X75882Y134115D01*
X75839Y133900D01*
X75882Y133685D01*
X76003Y133503D01*
X76043Y133477D01*
Y132723D01*
X76003Y132697D01*
X75882Y132515D01*
X75839Y132300D01*
X75882Y132085D01*
X76003Y131903D01*
X76185Y131782D01*
X76400Y131739D01*
X76615Y131782D01*
X76797Y131903D01*
X76918Y132085D01*
X76961Y132300D01*
X76918Y132515D01*
X76797Y132697D01*
X76757Y132723D01*
Y133477D01*
X76797Y133503D01*
X76918Y133685D01*
X76961Y133900D01*
X76918Y134115D01*
X76797Y134297D01*
X76615Y134418D01*
X76400Y134461D01*
D02*
G37*
G36*
X83800Y128061D02*
X83585Y128018D01*
X83403Y127897D01*
X83282Y127715D01*
X83239Y127500D01*
X83282Y127285D01*
X83392Y127120D01*
Y125780D01*
X83282Y125615D01*
X83239Y125400D01*
X83282Y125185D01*
X83403Y125003D01*
X83585Y124882D01*
X83800Y124839D01*
X84015Y124882D01*
X84197Y125003D01*
X84318Y125185D01*
X84361Y125400D01*
X84318Y125615D01*
X84208Y125780D01*
Y127120D01*
X84318Y127285D01*
X84361Y127500D01*
X84318Y127715D01*
X84197Y127897D01*
X84015Y128018D01*
X83800Y128061D01*
D02*
G37*
G36*
X42227Y122191D02*
Y121727D01*
X42691D01*
X42669Y121836D01*
X42535Y122035D01*
X42336Y122169D01*
X42227Y122191D01*
D02*
G37*
G36*
X41973D02*
X41864Y122169D01*
X41665Y122035D01*
X41531Y121836D01*
X41509Y121727D01*
X41973D01*
Y122191D01*
D02*
G37*
G36*
X42691Y121473D02*
X42227D01*
Y121009D01*
X42336Y121031D01*
X42535Y121165D01*
X42669Y121364D01*
X42691Y121473D01*
D02*
G37*
G36*
X41973D02*
X41509D01*
X41531Y121364D01*
X41665Y121165D01*
X41864Y121031D01*
X41973Y121009D01*
Y121473D01*
D02*
G37*
G36*
X37427Y114391D02*
Y113927D01*
X37891D01*
X37869Y114036D01*
X37735Y114235D01*
X37536Y114369D01*
X37427Y114391D01*
D02*
G37*
G36*
X37173D02*
X37064Y114369D01*
X36865Y114235D01*
X36731Y114036D01*
X36709Y113927D01*
X37173D01*
Y114391D01*
D02*
G37*
G36*
X37891Y113673D02*
X37427D01*
Y113209D01*
X37536Y113231D01*
X37735Y113365D01*
X37869Y113564D01*
X37891Y113673D01*
D02*
G37*
G36*
X37173D02*
X36709D01*
X36731Y113564D01*
X36865Y113365D01*
X37064Y113231D01*
X37173Y113209D01*
Y113673D01*
D02*
G37*
G36*
X33627Y110999D02*
Y109627D01*
X34999D01*
X34982Y109795D01*
X34896Y110078D01*
X34757Y110340D01*
X34569Y110569D01*
X34340Y110757D01*
X34078Y110896D01*
X33795Y110982D01*
X33627Y110999D01*
D02*
G37*
G36*
X33373D02*
X33205Y110982D01*
X32922Y110896D01*
X32660Y110757D01*
X32431Y110569D01*
X32243Y110340D01*
X32104Y110078D01*
X32018Y109795D01*
X32001Y109627D01*
X33373D01*
Y110999D01*
D02*
G37*
G36*
X29027Y109091D02*
Y108627D01*
X29491D01*
X29469Y108736D01*
X29335Y108935D01*
X29136Y109069D01*
X29027Y109091D01*
D02*
G37*
G36*
X28773D02*
X28664Y109069D01*
X28465Y108935D01*
X28331Y108736D01*
X28309Y108627D01*
X28773D01*
Y109091D01*
D02*
G37*
G36*
X34999Y109373D02*
X33627D01*
Y108001D01*
X33795Y108018D01*
X34078Y108104D01*
X34340Y108243D01*
X34569Y108431D01*
X34757Y108660D01*
X34896Y108922D01*
X34982Y109205D01*
X34999Y109373D01*
D02*
G37*
G36*
X33373D02*
X32001D01*
X32018Y109205D01*
X32104Y108922D01*
X32243Y108660D01*
X32431Y108431D01*
X32660Y108243D01*
X32922Y108104D01*
X33205Y108018D01*
X33373Y108001D01*
Y109373D01*
D02*
G37*
G36*
X29491Y108373D02*
X29027D01*
Y107909D01*
X29136Y107931D01*
X29335Y108065D01*
X29469Y108264D01*
X29491Y108373D01*
D02*
G37*
G36*
X28773D02*
X28309D01*
X28331Y108264D01*
X28465Y108065D01*
X28664Y107931D01*
X28773Y107909D01*
Y108373D01*
D02*
G37*
G36*
X37800Y97761D02*
X37585Y97718D01*
X37497Y97659D01*
X33103D01*
X33015Y97718D01*
X32800Y97761D01*
X32585Y97718D01*
X32403Y97597D01*
X32282Y97415D01*
X32239Y97200D01*
X32282Y96985D01*
X32403Y96803D01*
X32585Y96682D01*
X32800Y96639D01*
X33015Y96682D01*
X33103Y96741D01*
X37497D01*
X37585Y96682D01*
X37800Y96639D01*
X38015Y96682D01*
X38197Y96803D01*
X38318Y96985D01*
X38361Y97200D01*
X38318Y97415D01*
X38197Y97597D01*
X38015Y97718D01*
X37800Y97761D01*
D02*
G37*
G36*
X134925Y114281D02*
X134816Y114259D01*
X134616Y114126D01*
X134483Y113926D01*
X134461Y113817D01*
X134925D01*
Y114281D01*
D02*
G37*
G36*
X134950Y111074D02*
X134487D01*
X134508Y110966D01*
X134642Y110766D01*
X134842Y110632D01*
X134950Y110611D01*
Y111074D01*
D02*
G37*
G36*
X119327Y109191D02*
Y108727D01*
X119791D01*
X119769Y108836D01*
X119635Y109035D01*
X119436Y109169D01*
X119327Y109191D01*
D02*
G37*
G36*
X119073D02*
X118964Y109169D01*
X118765Y109035D01*
X118631Y108836D01*
X118609Y108727D01*
X119073D01*
Y109191D01*
D02*
G37*
G36*
X119791Y108473D02*
X119327D01*
Y108009D01*
X119436Y108031D01*
X119635Y108165D01*
X119769Y108364D01*
X119791Y108473D01*
D02*
G37*
G36*
X119073D02*
X118609D01*
X118631Y108364D01*
X118765Y108165D01*
X118964Y108031D01*
X119073Y108009D01*
Y108473D01*
D02*
G37*
G36*
X73127Y115991D02*
Y115527D01*
X73591D01*
X73569Y115636D01*
X73435Y115835D01*
X73236Y115969D01*
X73127Y115991D01*
D02*
G37*
G36*
X72873D02*
X72764Y115969D01*
X72565Y115835D01*
X72431Y115636D01*
X72409Y115527D01*
X72873D01*
Y115991D01*
D02*
G37*
G36*
X73591Y115273D02*
X73127D01*
Y114809D01*
X73236Y114831D01*
X73435Y114965D01*
X73569Y115164D01*
X73591Y115273D01*
D02*
G37*
G36*
X72873D02*
X72409D01*
X72431Y115164D01*
X72565Y114965D01*
X72764Y114831D01*
X72873Y114809D01*
Y115273D01*
D02*
G37*
G36*
X74127Y114991D02*
Y114527D01*
X74591D01*
X74569Y114636D01*
X74435Y114835D01*
X74236Y114969D01*
X74127Y114991D01*
D02*
G37*
G36*
X73873D02*
X73764Y114969D01*
X73565Y114835D01*
X73431Y114636D01*
X73409Y114527D01*
X73873D01*
Y114991D01*
D02*
G37*
G36*
X61427Y114891D02*
Y114427D01*
X61891D01*
X61869Y114536D01*
X61735Y114735D01*
X61536Y114869D01*
X61427Y114891D01*
D02*
G37*
G36*
X61173D02*
X61064Y114869D01*
X60865Y114735D01*
X60731Y114536D01*
X60709Y114427D01*
X61173D01*
Y114891D01*
D02*
G37*
G36*
X74591Y114273D02*
X74127D01*
Y113809D01*
X74236Y113831D01*
X74435Y113965D01*
X74569Y114164D01*
X74591Y114273D01*
D02*
G37*
G36*
X73873D02*
X73409D01*
X73431Y114164D01*
X73565Y113965D01*
X73764Y113831D01*
X73873Y113809D01*
Y114273D01*
D02*
G37*
G36*
X61891Y114173D02*
X61427D01*
Y113709D01*
X61536Y113731D01*
X61735Y113865D01*
X61869Y114064D01*
X61891Y114173D01*
D02*
G37*
G36*
X61173D02*
X60709D01*
X60731Y114064D01*
X60865Y113865D01*
X61064Y113731D01*
X61173Y113709D01*
Y114173D01*
D02*
G37*
G36*
X66370Y94215D02*
Y93751D01*
X66834D01*
X66812Y93860D01*
X66679Y94060D01*
X66479Y94193D01*
X66370Y94215D01*
D02*
G37*
G36*
X66116D02*
X66008Y94193D01*
X65808Y94060D01*
X65674Y93860D01*
X65653Y93751D01*
X66116D01*
Y94215D01*
D02*
G37*
G36*
X57027Y86191D02*
Y85727D01*
X57491D01*
X57469Y85836D01*
X57335Y86035D01*
X57136Y86169D01*
X57027Y86191D01*
D02*
G37*
G36*
X56773D02*
X56664Y86169D01*
X56465Y86035D01*
X56331Y85836D01*
X56309Y85727D01*
X56773D01*
Y86191D01*
D02*
G37*
G36*
X57491Y85473D02*
X57027D01*
Y85009D01*
X57136Y85031D01*
X57335Y85165D01*
X57469Y85364D01*
X57491Y85473D01*
D02*
G37*
G36*
X56773D02*
X56309D01*
X56331Y85364D01*
X56465Y85165D01*
X56664Y85031D01*
X56773Y85009D01*
Y85473D01*
D02*
G37*
G36*
X39300Y84458D02*
X39052Y84426D01*
X38821Y84330D01*
X38622Y84178D01*
X38470Y83979D01*
X38374Y83748D01*
X38342Y83500D01*
X38374Y83252D01*
X38470Y83021D01*
X38622Y82822D01*
X38821Y82670D01*
X39052Y82574D01*
X39300Y82542D01*
X39548Y82574D01*
X39779Y82670D01*
X39978Y82822D01*
X40130Y83021D01*
X40226Y83252D01*
X40258Y83500D01*
X40226Y83748D01*
X40130Y83979D01*
X39978Y84178D01*
X39779Y84330D01*
X39548Y84426D01*
X39300Y84458D01*
D02*
G37*
G36*
X51500Y84811D02*
X51161Y84767D01*
X50844Y84636D01*
X50573Y84427D01*
X50364Y84156D01*
X50233Y83839D01*
X50189Y83500D01*
X50233Y83161D01*
X50364Y82844D01*
X50573Y82573D01*
X50844Y82364D01*
X51161Y82233D01*
X51500Y82189D01*
X51839Y82233D01*
X52156Y82364D01*
X52427Y82573D01*
X52636Y82844D01*
X52767Y83161D01*
X52811Y83500D01*
X52767Y83839D01*
X52636Y84156D01*
X52427Y84427D01*
X52156Y84636D01*
X51839Y84767D01*
X51500Y84811D01*
D02*
G37*
G36*
X37300Y78761D02*
X36974Y78718D01*
X36670Y78592D01*
X36408Y78392D01*
X36208Y78130D01*
X36082Y77826D01*
X36039Y77500D01*
X36082Y77174D01*
X36208Y76870D01*
X36408Y76608D01*
X36670Y76408D01*
X36974Y76282D01*
X37300Y76239D01*
X37626Y76282D01*
X37930Y76408D01*
X38192Y76608D01*
X38392Y76870D01*
X38518Y77174D01*
X38561Y77500D01*
X38518Y77826D01*
X38392Y78130D01*
X38192Y78392D01*
X37930Y78592D01*
X37626Y78718D01*
X37300Y78761D01*
D02*
G37*
G36*
X30200Y78642D02*
X29848Y78595D01*
X29519Y78459D01*
X29237Y78243D01*
X29021Y77961D01*
X28885Y77632D01*
X28838Y77280D01*
X28885Y76928D01*
X29021Y76599D01*
X29237Y76317D01*
X29519Y76101D01*
X29848Y75965D01*
X30200Y75918D01*
X30552Y75965D01*
X30881Y76101D01*
X31163Y76317D01*
X31379Y76599D01*
X31515Y76928D01*
X31562Y77280D01*
X31515Y77632D01*
X31379Y77961D01*
X31163Y78243D01*
X30881Y78459D01*
X30552Y78595D01*
X30200Y78642D01*
D02*
G37*
G36*
X52730Y77066D02*
X52516Y77023D01*
X52334Y76901D01*
X52212Y76719D01*
X52170Y76505D01*
X52212Y76290D01*
X52334Y76108D01*
X52374Y76082D01*
Y75370D01*
X52308Y75327D01*
X52187Y75145D01*
X52144Y74930D01*
X52187Y74715D01*
X52308Y74533D01*
X52490Y74412D01*
X52705Y74369D01*
X52920Y74412D01*
X53102Y74533D01*
X53223Y74715D01*
X53266Y74930D01*
X53223Y75145D01*
X53102Y75327D01*
X53036Y75370D01*
Y76048D01*
X53127Y76108D01*
X53248Y76290D01*
X53291Y76505D01*
X53248Y76719D01*
X53127Y76901D01*
X52945Y77023D01*
X52730Y77066D01*
D02*
G37*
G36*
X30327Y73599D02*
Y72327D01*
X31599D01*
X31568Y72567D01*
X31426Y72908D01*
X31201Y73201D01*
X30908Y73426D01*
X30567Y73568D01*
X30327Y73599D01*
D02*
G37*
G36*
X30073D02*
X29833Y73568D01*
X29492Y73426D01*
X29199Y73201D01*
X28974Y72908D01*
X28832Y72567D01*
X28801Y72327D01*
X30073D01*
Y73599D01*
D02*
G37*
G36*
X31599Y72073D02*
X30327D01*
Y70801D01*
X30567Y70832D01*
X30908Y70974D01*
X31201Y71199D01*
X31426Y71492D01*
X31568Y71833D01*
X31599Y72073D01*
D02*
G37*
G36*
X30073D02*
X28801D01*
X28832Y71833D01*
X28974Y71492D01*
X29199Y71199D01*
X29492Y70974D01*
X29833Y70832D01*
X30073Y70801D01*
Y72073D01*
D02*
G37*
G36*
X39300Y72458D02*
X39052Y72426D01*
X38821Y72330D01*
X38622Y72178D01*
X38470Y71979D01*
X38374Y71748D01*
X38342Y71500D01*
X38374Y71252D01*
X38470Y71021D01*
X38622Y70822D01*
X38821Y70670D01*
X39052Y70574D01*
X39300Y70542D01*
X39548Y70574D01*
X39779Y70670D01*
X39978Y70822D01*
X40130Y71021D01*
X40226Y71252D01*
X40258Y71500D01*
X40226Y71748D01*
X40130Y71979D01*
X39978Y72178D01*
X39779Y72330D01*
X39548Y72426D01*
X39300Y72458D01*
D02*
G37*
G36*
X51500Y72811D02*
X51161Y72767D01*
X50844Y72636D01*
X50573Y72427D01*
X50364Y72156D01*
X50233Y71839D01*
X50189Y71500D01*
X50233Y71161D01*
X50364Y70844D01*
X50573Y70573D01*
X50844Y70364D01*
X51161Y70233D01*
X51500Y70189D01*
X51839Y70233D01*
X52156Y70364D01*
X52427Y70573D01*
X52636Y70844D01*
X52767Y71161D01*
X52811Y71500D01*
X52767Y71839D01*
X52636Y72156D01*
X52427Y72427D01*
X52156Y72636D01*
X51839Y72767D01*
X51500Y72811D01*
D02*
G37*
%LPD*%
D40*
X153670Y96063D02*
Y126594D01*
X150007Y92400D02*
X153670Y96063D01*
X145300Y92400D02*
X150007D01*
X84633Y167183D02*
X88544D01*
X73406Y178410D02*
X84633Y167183D01*
X73406Y178410D02*
Y195732D01*
X83996Y170804D02*
X89496D01*
X83300Y171500D02*
X83996Y170804D01*
X89496D02*
X90200Y170100D01*
X88189Y143434D02*
X90266D01*
X90300Y143400D01*
X99441Y139751D02*
X99466Y139776D01*
Y168834D01*
X76600Y181100D02*
X108600Y181200D01*
X146700Y138000D02*
Y139900D01*
X66300Y144400D02*
X68100D01*
X111600Y105100D02*
X116300D01*
X116500Y104900D01*
X101500Y115200D02*
X111600Y105100D01*
X101500Y115200D02*
Y149000D01*
X73340Y84900D02*
X77840Y80400D01*
X101900Y160100D02*
X102000Y160000D01*
X101900Y160100D02*
Y162800D01*
X107700Y117000D02*
Y149000D01*
X87500Y170004D02*
Y170100D01*
X93300Y132200D02*
Y164204D01*
X87500Y170004D02*
X93300Y164204D01*
X90900Y170900D02*
Y173300D01*
X93800Y176200D01*
X110000Y168300D02*
X110100D01*
X111100Y169300D01*
X111200D01*
X88900Y169600D02*
X107600D01*
X107500Y171000D02*
X109700Y173200D01*
X110700D01*
X142900Y92400D02*
X145300D01*
X135000D02*
X142900D01*
X90200Y170100D02*
X121670D01*
X145000Y146770D01*
Y135100D02*
Y146770D01*
X77840Y80400D02*
X108746D01*
X128143Y99797D01*
X134518D01*
X96672Y99949D02*
X98851D01*
X100070Y101168D01*
X73340Y92500D02*
X77817Y96977D01*
X107700Y117000D02*
X119151Y105549D01*
Y104648D02*
X121006Y102794D01*
X119151Y104648D02*
Y105549D01*
X77817Y96977D02*
X121209D01*
X126822Y102591D01*
X131648D01*
X134518Y99797D02*
X141097Y106375D01*
X112461Y165313D02*
X120800Y156974D01*
X111887Y165313D02*
X112461D01*
X120800Y137900D02*
Y156974D01*
X107600Y169600D02*
X111887Y165313D01*
X141097Y106375D02*
Y144805D01*
X137363Y148539D02*
X141097Y144805D01*
X131648Y102591D02*
X138176Y109118D01*
Y141605D01*
X135001Y144780D02*
X138176Y141605D01*
D41*
X130683Y118999D02*
Y131565D01*
X130759Y131641D01*
X52705Y76479D02*
X52730Y76505D01*
X52705Y74930D02*
Y76479D01*
X116200Y128500D02*
X116300Y128600D01*
X116200Y117500D02*
Y128500D01*
X125800Y136600D02*
Y139100D01*
Y136600D02*
X130759Y131641D01*
D43*
X70500Y159654D02*
Y164000D01*
X70485Y159639D02*
X70500Y159654D01*
X127396Y108600D02*
X127889Y109093D01*
X119200Y108600D02*
X127396D01*
X102520Y177300D02*
X108900D01*
X101420Y176200D02*
X102520Y177300D01*
X49800Y161700D02*
Y163300D01*
X71300Y115400D02*
Y126000D01*
X104800Y157900D02*
X118200D01*
X119800Y156300D01*
X33600Y140500D02*
X36800D01*
X36900Y140600D01*
X42100D02*
X43600D01*
X58600Y139600D02*
X66200D01*
X76400Y132300D02*
Y133900D01*
X150700Y91800D02*
X152200Y90300D01*
D44*
X67420Y86580D02*
X73340Y92500D01*
X67420Y74400D02*
Y86580D01*
X83800Y125400D02*
Y127500D01*
X120500Y119100D02*
Y127700D01*
X142392Y133858D02*
X144856Y131394D01*
X144805Y131343D02*
X144856Y131394D01*
X144805Y111836D02*
Y131343D01*
D49*
X67200Y164100D02*
X70700D01*
X70600Y164000D02*
X70700Y164100D01*
X70500Y164000D02*
X70600D01*
X32800Y97200D02*
X37800D01*
D66*
X30200Y72200D02*
D03*
Y77280D02*
D03*
X72500Y74400D02*
D03*
X67420D02*
D03*
X83600D02*
D03*
X78520D02*
D03*
X94700D02*
D03*
X89620D02*
D03*
X105800D02*
D03*
X100720D02*
D03*
D67*
X33500Y109500D02*
D03*
X98740Y84900D02*
D03*
Y92500D02*
D03*
X83500Y84900D02*
D03*
Y92500D02*
D03*
X78420Y84900D02*
D03*
Y92500D02*
D03*
X73340Y84900D02*
D03*
Y92500D02*
D03*
D68*
X101420Y178740D02*
D03*
Y176200D02*
D03*
X98880Y178740D02*
D03*
Y176200D02*
D03*
X96340Y178740D02*
D03*
Y176200D02*
D03*
X93800Y178740D02*
D03*
X39300Y83500D02*
D03*
Y71500D02*
D03*
X66970Y184200D02*
D03*
X69510D02*
D03*
X72050D02*
D03*
X74590D02*
D03*
X77130D02*
D03*
X79670D02*
D03*
X82210D02*
D03*
X84750D02*
D03*
X87290D02*
D03*
X89830D02*
D03*
X94910D02*
D03*
X97450D02*
D03*
X99990D02*
D03*
X102530D02*
D03*
X105070D02*
D03*
X107610D02*
D03*
X110150D02*
D03*
X112690D02*
D03*
X115230D02*
D03*
X92370D02*
D03*
D69*
X93800Y176200D02*
D03*
D70*
X77700Y169940D02*
D03*
Y165060D02*
D03*
D71*
X130000Y96000D02*
D03*
Y89200D02*
D03*
X62900Y134000D02*
D03*
X56100D02*
D03*
X123300Y104900D02*
D03*
X116500D02*
D03*
D72*
X51500Y71500D02*
D03*
Y83500D02*
D03*
D73*
X37300Y77500D02*
D03*
D74*
X110750Y77200D02*
D03*
X138250D02*
D03*
X37000Y89500D02*
D03*
X32000D02*
D03*
D75*
X126100Y184200D02*
D03*
X56100D02*
D03*
Y233900D02*
D03*
X126100D02*
D03*
D76*
X48100Y171800D02*
D03*
X43100D02*
D03*
X38100D02*
D03*
X68700D02*
D03*
X63700D02*
D03*
X58700D02*
D03*
D77*
X137500Y158100D02*
D03*
Y162800D02*
D03*
Y167500D02*
D03*
D78*
X130683Y118999D02*
D03*
X73406Y195732D02*
D03*
X88544Y167183D02*
D03*
X88189Y143434D02*
D03*
X99441Y139751D02*
D03*
X99466Y168834D02*
D03*
X148700Y95100D02*
D03*
X118900Y161496D02*
D03*
X70485Y159639D02*
D03*
X127889Y109093D02*
D03*
X66243Y93624D02*
D03*
X52730Y76505D02*
D03*
X52705Y74930D02*
D03*
X102000Y160000D02*
D03*
X108600Y181200D02*
D03*
X76600Y181100D02*
D03*
X108900Y177300D02*
D03*
X104800Y157900D02*
D03*
X119800Y156300D02*
D03*
X49800Y161700D02*
D03*
Y163300D02*
D03*
X67200Y164100D02*
D03*
X70500Y164000D02*
D03*
X37800Y97200D02*
D03*
X71300Y115400D02*
D03*
Y126000D02*
D03*
X116200Y117500D02*
D03*
X116300Y128600D02*
D03*
X146700Y138000D02*
D03*
Y139900D02*
D03*
X90300Y143400D02*
D03*
X68100Y144400D02*
D03*
X66300D02*
D03*
X32800Y97200D02*
D03*
X107700Y149000D02*
D03*
X101500D02*
D03*
X87500Y170100D02*
D03*
X93300Y132200D02*
D03*
X120800Y137900D02*
D03*
X83300Y171500D02*
D03*
X145000Y135100D02*
D03*
X33600Y140500D02*
D03*
X36900Y140600D02*
D03*
X42100D02*
D03*
X43600D02*
D03*
X58600Y139600D02*
D03*
X66200D02*
D03*
X76400Y133900D02*
D03*
Y132300D02*
D03*
X152200Y90300D02*
D03*
X150700Y91800D02*
D03*
X41400Y153100D02*
D03*
X51000Y159800D02*
D03*
X80100Y175800D02*
D03*
X79500Y165600D02*
D03*
X87100Y177500D02*
D03*
X92000Y163500D02*
D03*
X98200Y152700D02*
D03*
X101900Y162800D02*
D03*
X128000Y139900D02*
D03*
X119200Y108600D02*
D03*
X135077Y111201D02*
D03*
X142900Y92400D02*
D03*
X145300D02*
D03*
X74000Y114400D02*
D03*
X73000Y115400D02*
D03*
X61300Y114300D02*
D03*
X37300Y113800D02*
D03*
X42100Y121600D02*
D03*
X28900Y108500D02*
D03*
X56900Y85600D02*
D03*
X144600Y98200D02*
D03*
X144800Y101200D02*
D03*
X144600Y99700D02*
D03*
X130700Y194700D02*
D03*
X119700Y193700D02*
D03*
X88800Y100900D02*
D03*
X83800Y127500D02*
D03*
Y125400D02*
D03*
X120500Y127700D02*
D03*
Y119100D02*
D03*
X125800Y139100D02*
D03*
X88900Y169600D02*
D03*
X90900Y170900D02*
D03*
X110000Y168300D02*
D03*
X111200Y169300D02*
D03*
X110700Y173200D02*
D03*
X107500Y171000D02*
D03*
X135000Y92400D02*
D03*
X142392Y133858D02*
D03*
X96672Y99949D02*
D03*
X100070Y101168D02*
D03*
X109042Y97765D02*
D03*
X121006Y102794D02*
D03*
X135052Y113690D02*
D03*
X135065Y112471D02*
D03*
X144805Y111836D02*
D03*
X143963Y113288D02*
D03*
X128270Y155677D02*
D03*
X112928Y154737D02*
D03*
X135001Y144780D02*
D03*
X137363Y148539D02*
D03*
X153620Y126848D02*
D03*
M02*
