G04 Layer_Color=16711935*
%FSLAX43Y43*%
%MOMM*%
G71*
G01*
G75*
%ADD122C,0.100*%
%ADD123C,0.254*%
%ADD124C,0.152*%
D122*
X25375Y69520D02*
Y236398D01*
X25400D02*
X156769D01*
X25400Y69494D02*
X156769D01*
Y236398D01*
D123*
Y63500D02*
Y69190D01*
X25400Y63500D02*
Y69190D01*
X95147Y63754D02*
X156769D01*
X25400D02*
X86209D01*
X155245Y64262D02*
X156769Y63754D01*
X155245Y63246D02*
X156769Y63754D01*
X25400D02*
X26924Y63246D01*
X25400Y63754D02*
X26924Y64262D01*
X157073Y236398D02*
X171755D01*
X157073Y69494D02*
X171755D01*
X171501Y157136D02*
Y236398D01*
Y69494D02*
Y147944D01*
X170993Y234874D02*
X171501Y236398D01*
X172009Y234874D01*
X171501Y69494D02*
X172009Y71018D01*
X170993D02*
X171501Y69494D01*
D124*
X86615Y62586D02*
X87123D01*
X86869D01*
Y64109D01*
X86615Y63856D01*
X87885D02*
X88139Y64109D01*
X88647D01*
X88901Y63856D01*
Y63602D01*
X88647Y63348D01*
X88393D01*
X88647D01*
X88901Y63094D01*
Y62840D01*
X88647Y62586D01*
X88139D01*
X87885Y62840D01*
X89408Y62586D02*
X89916D01*
X89662D01*
Y64109D01*
X89408Y63856D01*
X90932Y62332D02*
X91186Y62586D01*
Y62840D01*
X90932D01*
Y62586D01*
X91186D01*
X90932Y62332D01*
X90678Y62078D01*
X92201Y63856D02*
X92455Y64109D01*
X92963D01*
X93217Y63856D01*
Y63602D01*
X92963Y63348D01*
X92709D01*
X92963D01*
X93217Y63094D01*
Y62840D01*
X92963Y62586D01*
X92455D01*
X92201Y62840D01*
X93725Y64109D02*
X94741D01*
Y63856D01*
X93725Y62840D01*
Y62586D01*
X172669Y148350D02*
Y148858D01*
Y148604D01*
X171145D01*
X171399Y148350D01*
X171145Y150635D02*
X171399Y150127D01*
X171907Y149620D01*
X172415D01*
X172669Y149874D01*
Y150381D01*
X172415Y150635D01*
X172161D01*
X171907Y150381D01*
Y149620D01*
X171145Y152159D02*
X171399Y151651D01*
X171907Y151143D01*
X172415D01*
X172669Y151397D01*
Y151905D01*
X172415Y152159D01*
X172161D01*
X171907Y151905D01*
Y151143D01*
X172923Y152921D02*
X172669Y153174D01*
X172415D01*
Y152921D01*
X172669D01*
Y153174D01*
X172923Y152921D01*
X173177Y152667D01*
X172415Y154190D02*
X172669Y154444D01*
Y154952D01*
X172415Y155206D01*
X171399D01*
X171145Y154952D01*
Y154444D01*
X171399Y154190D01*
X171653D01*
X171907Y154444D01*
Y155206D01*
X171399Y155714D02*
X171145Y155968D01*
Y156475D01*
X171399Y156729D01*
X172415D01*
X172669Y156475D01*
Y155968D01*
X172415Y155714D01*
X171399D01*
M02*
